<svg width="21" height="20" viewBox="0 0 21 20" fill="none" xmlns="http://www.w3.org/2000/svg">
<path d="M17.3513 7.15508C17.3104 7.06675 17.2596 6.98258 17.1879 6.91092L12.1879 1.91091C12.1163 1.83925 12.0321 1.78841 11.9438 1.74758C11.9188 1.73591 11.8921 1.72925 11.8654 1.72008C11.7954 1.69675 11.7238 1.68175 11.6496 1.67758C11.6321 1.67591 11.6163 1.66675 11.5988 1.66675H5.76542C4.84625 1.66675 4.09875 2.41425 4.09875 3.33341V16.6667C4.09875 17.5859 4.84625 18.3334 5.76542 18.3334H15.7654C16.6846 18.3334 17.4321 17.5859 17.4321 16.6667V7.50008C17.4321 7.48258 17.4229 7.46675 17.4213 7.44841C17.4171 7.37425 17.4029 7.30258 17.3788 7.23258C17.3704 7.20591 17.3629 7.18008 17.3513 7.15508ZM14.5871 6.66675H12.4321V4.51175L14.5871 6.66675ZM5.76542 16.6667V3.33341H10.7654V7.50008C10.7654 7.96091 11.1379 8.33342 11.5988 8.33342H15.7654L15.7671 16.6667H5.76542Z" fill="#9397AD"/>
<path d="M7.43213 9.99996H14.0988V11.6666H7.43213V9.99996ZM7.43213 13.3333H14.0988V15H7.43213V13.3333ZM7.43213 6.66663H9.0988V8.33329H7.43213V6.66663Z" fill="#9397AD"/>
</svg>
