<svg width="58" height="59" viewBox="0 0 58 59" fill="none" xmlns="http://www.w3.org/2000/svg">
<g filter="url(#filter0_dd_20005153_5053)">
<rect x="11" y="7" width="36" height="36" rx="18" fill="white"/>
<rect x="11.5" y="7.5" width="35" height="35" rx="17.5" stroke="#E2E5F1"/>
<path d="M27.3337 24.1668H24.9178C24.9178 24.1643 24.9178 24.1618 24.9187 24.1593C24.9728 23.8935 25.0545 23.6309 25.1612 23.3784C25.2662 23.1309 25.3953 22.8926 25.5453 22.6701C25.6937 22.4501 25.8653 22.2426 26.0537 22.0535C26.2428 21.8651 26.4503 21.6935 26.672 21.5443C26.8937 21.3943 27.1312 21.266 27.3787 21.161C27.6303 21.0543 27.8928 20.9726 28.1603 20.9185C28.7087 20.806 29.2912 20.806 29.842 20.9185C30.107 20.9726 30.3703 21.0543 30.6228 21.161C30.8695 21.2651 31.107 21.3951 31.3312 21.5451C31.5528 21.6943 31.7595 21.8651 31.9462 22.0526L33.1262 20.876C32.8645 20.6126 32.5728 20.3726 32.2628 20.1635C31.952 19.9535 31.6187 19.7718 31.2728 19.6251C30.9187 19.4751 30.5495 19.361 30.177 19.2851C29.4078 19.1276 28.5945 19.1276 27.8278 19.2851C27.4537 19.3618 27.0845 19.476 26.7312 19.626C26.382 19.7726 26.0487 19.9535 25.7387 20.1635C25.4303 20.371 25.1403 20.611 24.8753 20.8751C24.6103 21.1393 24.3712 21.4301 24.1645 21.7376C23.9545 22.0485 23.7728 22.3818 23.6262 22.7293C23.4762 23.0826 23.362 23.4518 23.2862 23.8251C23.2628 23.9376 23.2503 24.0526 23.2337 24.1668H20.667L24.0003 27.5001L27.3337 24.1668ZM30.667 25.8335H33.0828C33.082 25.8359 33.0828 25.8385 33.082 25.8401C33.027 26.1101 32.9453 26.3726 32.8387 26.6218C32.7362 26.866 32.607 27.1043 32.4562 27.3285C32.307 27.5485 32.1353 27.7568 31.9453 27.9468C31.7578 28.1343 31.5512 28.3051 31.3295 28.4551C31.1062 28.6051 30.8687 28.7343 30.622 28.8393C30.3695 28.946 30.107 29.0276 29.8403 29.0818C29.2928 29.1943 28.7095 29.1943 28.1595 29.0818C27.8937 29.0276 27.6312 28.946 27.3787 28.8393C27.1312 28.7343 26.8928 28.6051 26.6703 28.4551C26.4503 28.3068 26.2428 28.1351 26.0537 27.9468L24.8753 29.1251C25.1395 29.3893 25.4303 29.6293 25.7378 29.8368C26.0487 30.0468 26.382 30.2285 26.7295 30.3751C27.0828 30.5251 27.452 30.6393 27.8253 30.7151C28.2095 30.7935 28.6045 30.8335 29.0003 30.8335C29.3962 30.8335 29.7912 30.7935 30.1737 30.7151C30.5478 30.6393 30.9178 30.5243 31.2712 30.3743C31.617 30.2276 31.9503 30.0468 32.2612 29.8368C32.5712 29.6276 32.8628 29.3868 33.1237 29.1251C33.3878 28.861 33.6278 28.5701 33.8362 28.261C34.0478 27.9468 34.2295 27.6135 34.3737 27.2718C34.522 26.9218 34.6362 26.5526 34.7137 26.1751C34.7362 26.0626 34.7495 25.9476 34.7662 25.8335H37.3337L34.0003 22.5001L30.667 25.8335Z" fill="#33354D"/>
</g>
<defs>
<filter id="filter0_dd_20005153_5053" x="0" y="0.4" width="58" height="58" filterUnits="userSpaceOnUse" color-interpolation-filters="sRGB">
<feFlood flood-opacity="0" result="BackgroundImageFix"/>
<feColorMatrix in="SourceAlpha" type="matrix" values="0 0 0 0 0 0 0 0 0 0 0 0 0 0 0 0 0 0 127 0" result="hardAlpha"/>
<feMorphology radius="1" operator="erode" in="SourceAlpha" result="effect1_dropShadow_20005153_5053"/>
<feOffset dy="2"/>
<feGaussianBlur stdDeviation="3.2"/>
<feColorMatrix type="matrix" values="0 0 0 0 0.0745098 0 0 0 0 0.0627451 0 0 0 0 0.133333 0 0 0 0.03 0"/>
<feBlend mode="normal" in2="BackgroundImageFix" result="effect1_dropShadow_20005153_5053"/>
<feColorMatrix in="SourceAlpha" type="matrix" values="0 0 0 0 0 0 0 0 0 0 0 0 0 0 0 0 0 0 127 0" result="hardAlpha"/>
<feMorphology radius="1" operator="erode" in="SourceAlpha" result="effect2_dropShadow_20005153_5053"/>
<feOffset dy="4.4"/>
<feGaussianBlur stdDeviation="6"/>
<feColorMatrix type="matrix" values="0 0 0 0 0.0745098 0 0 0 0 0.0627451 0 0 0 0 0.133333 0 0 0 0.06 0"/>
<feBlend mode="normal" in2="effect1_dropShadow_20005153_5053" result="effect2_dropShadow_20005153_5053"/>
<feBlend mode="normal" in="SourceGraphic" in2="effect2_dropShadow_20005153_5053" result="shape"/>
</filter>
</defs>
</svg>
