<svg width="18" height="18" viewBox="0 0 18 18" fill="none" xmlns="http://www.w3.org/2000/svg">
<path d="M3.75226 16.4999H6.75226H11.2523H14.2523C15.0795 16.4999 15.7523 15.8272 15.7523 14.9999V8.24994C15.7523 8.05119 15.6735 7.85994 15.5325 7.71969L9.53251 1.71969C9.23926 1.42644 8.76526 1.42644 8.47201 1.71969L2.47201 7.71969C2.33101 7.85994 2.25226 8.05119 2.25226 8.24994V14.9999C2.25226 15.8272 2.92501 16.4999 3.75226 16.4999ZM7.50226 14.9999V11.2499H10.5023V14.9999H7.50226ZM3.75226 8.56044L9.00226 3.31044L14.2523 8.56044L14.253 14.9999H12.0023V11.2499C12.0023 10.4227 11.3295 9.74994 10.5023 9.74994H7.50226C6.67501 9.74994 6.00226 10.4227 6.00226 11.2499V14.9999H3.75226V8.56044Z" fill="#9397AD"/>
</svg>
