<svg width="24" height="24" viewBox="0 0 24 24" fill="none" xmlns="http://www.w3.org/2000/svg">
<path d="M5.00293 22H9.00293H15.0029H19.0029C20.1059 22 21.0029 21.103 21.0029 20V11C21.0029 10.735 20.8979 10.48 20.7099 10.293L12.7099 2.29301C12.3189 1.90201 11.6869 1.90201 11.2959 2.29301L3.29593 10.293C3.10793 10.48 3.00293 10.735 3.00293 11V20C3.00293 21.103 3.89993 22 5.00293 22ZM10.0029 20V15H14.0029V20H10.0029ZM5.00293 11.414L12.0029 4.41401L19.0029 11.414L19.0039 20H16.0029V15C16.0029 13.897 15.1059 13 14.0029 13H10.0029C8.89993 13 8.00293 13.897 8.00293 15V20H5.00293V11.414Z" fill="white"/>
</svg>
