<svg width="21" height="20" viewBox="0 0 21 20" fill="none" xmlns="http://www.w3.org/2000/svg">
<path d="M14.9321 5.83337C13.1871 5.83337 11.923 7.13921 10.7646 8.62171C9.6063 7.13921 8.34296 5.83337 6.5988 5.83337C4.3013 5.83337 2.43213 7.70254 2.43213 10C2.43213 11.1117 2.86463 12.1575 3.64796 12.945C4.4338 13.7325 5.4788 14.1667 6.59046 14.1667C6.59046 14.1667 6.59963 14.1667 6.60046 14.1667C8.3413 14.1625 9.60463 12.8567 10.7638 11.3742C11.923 12.8592 13.1871 14.1667 14.9321 14.1667C17.2296 14.1667 19.0988 12.2975 19.0988 10C19.0988 7.70254 17.2296 5.83337 14.9321 5.83337ZM6.59713 12.5L6.59046 13.3334V12.5C5.92463 12.5 5.2988 12.24 4.8288 11.7684C4.35796 11.2959 4.0988 10.6675 4.0988 10C4.0988 8.62171 5.22046 7.50004 6.5988 7.50004C7.70713 7.50004 8.73213 8.69837 9.72046 9.99837C8.73046 11.2975 7.70546 12.4975 6.59713 12.5ZM14.9321 12.5C13.8238 12.5 12.798 11.3 11.808 9.99837C12.7971 8.69837 13.8221 7.50004 14.9321 7.50004C16.3105 7.50004 17.4321 8.62171 17.4321 10C17.4321 11.3784 16.3105 12.5 14.9321 12.5Z" fill="#9397AD"/>
</svg>
