<svg width="20" height="20" viewBox="0 0 20 20" fill="none" xmlns="http://www.w3.org/2000/svg">
<path d="M16.6667 6.66675H11.9901L12.9259 3.86091C13.0942 3.35425 13.0092 2.79258 12.6967 2.35925C12.3842 1.92591 11.8776 1.66675 11.3434 1.66675H10.0001C9.75258 1.66675 9.51841 1.77675 9.35925 1.96675L5.44258 6.66675H3.33341C2.41425 6.66675 1.66675 7.41425 1.66675 8.33341V15.8334C1.66675 16.7526 2.41425 17.5001 3.33341 17.5001H5.83342H14.4226C15.1134 17.5001 15.7401 17.0659 15.9834 16.4184L18.2809 10.2926C18.3159 10.1992 18.3334 10.1001 18.3334 10.0001V8.33341C18.3334 7.41425 17.5859 6.66675 16.6667 6.66675ZM3.33341 8.33341H5.00008V15.8334H3.33341V8.33341ZM16.6667 9.84925L14.4226 15.8334H6.66675V7.80175L10.3901 3.33341H11.3451L10.0434 7.23591C9.95758 7.49008 10.0009 7.76925 10.1576 7.98675C10.3142 8.20508 10.5659 8.33341 10.8334 8.33341H16.6667V9.84925Z" fill="#9397AD"/>
</svg>
