<svg width="20" height="20" viewBox="0 0 20 20" fill="none" xmlns="http://www.w3.org/2000/svg">
<path d="M8.33342 15.0001C9.87175 15.0001 11.2859 14.4709 12.4142 13.5934L16.0776 17.2567L17.2559 16.0784L13.5926 12.4151C14.4709 11.2859 15.0001 9.87175 15.0001 8.33341C15.0001 4.65758 12.0092 1.66675 8.33342 1.66675C4.65758 1.66675 1.66675 4.65758 1.66675 8.33341C1.66675 12.0092 4.65758 15.0001 8.33342 15.0001ZM8.33342 3.33341C11.0909 3.33341 13.3334 5.57591 13.3334 8.33341C13.3334 11.0909 11.0909 13.3334 8.33342 13.3334C5.57591 13.3334 3.33341 11.0909 3.33341 8.33341C3.33341 5.57591 5.57591 3.33341 8.33342 3.33341Z" fill="#33354D"/>
</svg>
