<svg width="20" height="20" viewBox="0 0 20 20" fill="none" xmlns="http://www.w3.org/2000/svg">
<path d="M17.9942 6.0025C17.8025 5.2875 17.24 4.72333 16.5259 4.53083C15.2209 4.1725 10 4.16666 10 4.16666C10 4.16666 4.78003 4.16083 3.4742 4.50333C2.7742 4.69416 2.19586 5.27083 2.00253 5.985C1.65836 7.29 1.65503 9.99666 1.65503 9.99666C1.65503 9.99666 1.6517 12.7167 1.99336 14.0083C2.18503 14.7225 2.74753 15.2867 3.46253 15.4792C4.78086 15.8375 9.98753 15.8433 9.98753 15.8433C9.98753 15.8433 15.2084 15.8492 16.5134 15.5075C17.2267 15.3158 17.7917 14.7525 17.9859 14.0383C18.3309 12.7342 18.3334 10.0283 18.3334 10.0283C18.3334 10.0283 18.35 7.3075 17.9942 6.0025ZM8.33003 12.5042L8.3342 7.50416L12.6734 10.0083L8.33003 12.5042Z" fill="white"/>
</svg>
