<svg width="1296" height="442" viewBox="0 0 1296 442" fill="none" xmlns="http://www.w3.org/2000/svg">
<rect width="1296" height="442" rx="8" fill="white" fill-opacity="0.04"/>
<path d="M807.474 366.392C815.465 364.683 837.332 359.48 832.501 344.674C827.198 328.414 807.946 328.887 798.392 331.47C788.875 334.053 772.165 345.62 777.251 358.534C782.737 372.431 799.882 367.993 807.474 366.392Z" fill="#0B0F19"/>
<path d="M793.816 368.867C786.987 368.867 779.939 366.794 776.743 358.682C775.218 354.825 775.472 350.824 777.469 346.786C781.356 339.075 791.055 332.853 798.248 330.889C807.874 328.307 827.562 327.797 833.01 344.458C834.173 348.06 833.918 351.37 832.21 354.317C827.416 362.683 812.486 365.848 807.582 366.903L806.492 367.122C803.26 367.849 798.574 368.867 793.814 368.867H793.816ZM808.927 330.635C805.003 330.635 801.335 331.217 798.538 331.98C792.581 333.581 782.411 339.401 778.451 347.296C776.562 351.043 776.343 354.716 777.76 358.281C782.845 371.16 798.101 367.849 806.275 366.066C806.64 366 807.003 365.928 807.365 365.848C820.188 363.119 828.252 359.082 831.266 353.807C832.791 351.151 833.046 348.132 831.957 344.822C828.36 333.727 818.008 330.635 808.927 330.635Z" fill="white"/>
<path d="M821.894 364.464C824.832 364.463 827.65 363.294 829.728 361.214C831.806 359.133 832.973 356.311 832.973 353.368C832.967 350.428 831.797 347.61 829.721 345.53C827.645 343.451 824.831 342.28 821.894 342.273C818.958 342.28 816.144 343.451 814.067 345.53C811.991 347.61 810.822 350.428 810.815 353.368C810.815 356.311 811.983 359.133 814.06 361.214C816.138 363.294 818.956 364.463 821.894 364.464Z" fill="#0B0F19"/>
<path d="M821.893 365.012C815.463 365.012 810.269 359.773 810.269 353.37C810.269 346.967 815.5 341.729 821.893 341.729C828.286 341.729 833.516 346.967 833.516 353.37C833.516 359.773 828.321 365.012 821.893 365.012ZM821.893 342.784C819.1 342.787 816.422 343.899 814.447 345.877C812.472 347.855 811.361 350.537 811.359 353.335C811.362 356.132 812.472 358.813 814.447 360.791C816.422 362.769 819.1 363.881 821.893 363.884C824.686 363.881 827.364 362.769 829.338 360.791C831.313 358.813 832.424 356.132 832.427 353.335C832.424 350.537 831.314 347.855 829.339 345.877C827.364 343.899 824.686 342.787 821.893 342.784Z" fill="white"/>
<path d="M812.341 347.698C812.341 347.698 810.853 339.659 812.341 339.113C813.83 338.567 817.935 342.969 817.935 342.969C817.935 342.969 816.01 343.66 814.811 344.788C813.613 345.952 812.341 347.698 812.341 347.698Z" fill="#0B0F19"/>
<path d="M812.341 348.243H812.233C812.014 348.206 811.869 348.025 811.834 347.807C811.834 347.733 811.47 345.733 811.253 343.66C810.889 339.621 811.507 338.822 812.161 338.603C813.868 337.985 817.319 341.513 818.336 342.604C818.444 342.75 818.517 342.932 818.481 343.114C818.444 343.296 818.299 343.441 818.117 343.513C818.081 343.513 816.265 344.168 815.175 345.223C814.302 346.104 813.5 347.052 812.777 348.061C812.721 348.119 812.653 348.165 812.578 348.197C812.503 348.228 812.423 348.244 812.341 348.243ZM812.523 339.621C812.523 339.621 811.978 340.058 812.341 343.732L812.668 346.388L814.412 344.424C815.212 343.66 816.265 343.114 816.955 342.786C815.248 341.004 813.141 339.367 812.523 339.621ZM832.865 352.204C832.793 352.204 832.719 352.168 832.611 352.132C832.466 352.058 832.357 351.913 832.32 351.731C832.32 351.695 831.812 349.148 830.977 347.948L829.342 345.801C829.196 345.656 829.16 345.438 829.233 345.256C829.306 345.074 829.487 344.929 829.669 344.892C830.431 344.783 837.152 343.874 838.967 345.256C839.117 345.361 839.242 345.496 839.336 345.653C839.43 345.809 839.49 345.984 839.513 346.165C839.803 348.493 834.209 351.513 833.12 352.058C833.046 352.204 832.938 352.204 832.866 352.204H832.865ZM830.794 345.911L831.884 347.365C832.538 348.348 833.01 349.912 833.227 350.821C835.588 349.513 838.531 347.402 838.422 346.347C838.422 346.311 838.422 346.274 838.277 346.165C837.332 345.475 833.554 345.62 830.794 345.911Z" fill="white"/>
<path d="M782.191 341.367C782.191 341.367 772.056 350.825 774.636 362.175C777.396 374.253 799.772 382.328 809.399 370.25C817.099 360.574 804.132 355.19 800.246 361.302C794.76 369.887 771.186 370.541 782.192 341.367H782.191Z" fill="#2B2D49"/>
<path d="M796.032 376.763C794.288 376.763 792.472 376.544 790.62 376.145C782.338 374.253 775.545 368.578 774.092 362.32C773.002 357.555 773.983 352.353 776.962 347.297C779.178 343.477 781.72 341.113 781.793 341.04C781.975 340.858 782.266 340.858 782.484 341.003C782.702 341.149 782.774 341.404 782.702 341.658C778.235 353.481 779.069 361.994 784.99 364.976C789.676 367.341 797.014 365.414 799.775 361.12C801.046 359.156 803.298 358.102 805.877 358.283C808.566 358.501 810.927 360.066 811.872 362.248C812.925 364.685 812.199 367.668 809.837 370.651C806.64 374.617 801.7 376.763 796.034 376.763H796.032ZM780.775 343.732C778.052 347.043 773.329 354.136 775.182 362.03C776.525 367.887 782.992 373.234 790.874 375.053C798.283 376.726 805.04 374.798 808.964 369.888C811.652 366.505 811.47 364.031 810.853 362.576C810.053 360.757 808.056 359.447 805.768 359.265C803.625 359.083 801.699 359.957 800.683 361.593C797.595 366.395 789.748 368.469 784.518 365.85C781.576 364.358 779.687 361.63 779.033 357.883C778.342 354.099 778.924 349.334 780.777 343.732H780.775ZM803.843 354.571C803.731 354.569 803.623 354.534 803.532 354.469C803.441 354.404 803.372 354.312 803.334 354.207C803.308 354.14 803.296 354.069 803.299 353.997C803.301 353.926 803.319 353.856 803.349 353.791C803.38 353.726 803.423 353.669 803.477 353.621C803.531 353.574 803.593 353.538 803.661 353.516C807.912 351.952 814.632 353.007 814.922 353.043C814.993 353.052 815.061 353.076 815.122 353.113C815.182 353.15 815.235 353.198 815.276 353.257C815.317 353.315 815.345 353.381 815.36 353.451C815.374 353.52 815.373 353.592 815.358 353.662C815.321 353.953 815.031 354.17 814.741 354.098C814.667 354.098 808.02 353.043 804.025 354.498C803.953 354.571 803.916 354.571 803.843 354.571ZM835.226 362.724C835.064 362.718 834.909 362.653 834.79 362.542C833.991 361.559 829.705 359.085 828.107 358.212C827.853 358.066 827.743 357.74 827.888 357.485C828.033 357.229 828.36 357.122 828.614 357.267C829.232 357.593 834.535 360.541 835.625 361.85C835.807 362.069 835.77 362.432 835.552 362.614C835.48 362.687 835.37 362.724 835.225 362.724H835.226ZM804.713 357.957C804.495 357.957 804.313 357.849 804.204 357.63C804.059 357.376 804.204 357.048 804.458 356.903C808.635 354.902 814.556 355.011 814.81 355.011C814.953 355.015 815.089 355.074 815.191 355.176C815.292 355.277 815.35 355.414 815.354 355.557C815.354 355.848 815.101 356.066 814.81 356.102C814.737 356.102 808.853 355.994 804.93 357.885C804.857 357.921 804.785 357.957 804.712 357.957H804.713ZM833.809 368.356C833.591 368.356 833.374 368.211 833.3 367.957C832.356 364.755 826.944 360.389 826.87 360.317C826.652 360.135 826.617 359.771 826.798 359.554C826.98 359.336 827.344 359.298 827.561 359.48C827.778 359.662 833.3 364.136 834.353 367.629C834.391 367.769 834.374 367.918 834.307 368.046C834.239 368.174 834.126 368.272 833.99 368.32C833.918 368.356 833.845 368.356 833.808 368.356H833.809Z" fill="white"/>
<path d="M835.614 238.857C835.471 238.853 835.334 238.794 835.233 238.692C835.131 238.591 835.073 238.454 835.069 238.311C835.073 238.167 835.132 238.031 835.233 237.93C835.335 237.828 835.471 237.769 835.614 237.766L1022.07 235.946C1022.21 235.95 1022.35 236.009 1022.45 236.11C1022.55 236.212 1022.61 236.348 1022.61 236.492C1022.61 236.636 1022.55 236.772 1022.45 236.874C1022.35 236.976 1022.21 237.034 1022.07 237.038L835.614 238.857Z" fill="white" fill-opacity="0.55"/>
<path d="M967.8 339.04L1010.19 338.531L1006.78 351.336L967.836 351.445V339.04H967.8Z" fill="#0B0F19"/>
<path d="M967.799 351.993C967.653 351.993 967.508 351.919 967.4 351.847C967.29 351.737 967.254 351.592 967.254 351.446V339.042C967.258 338.899 967.317 338.762 967.418 338.661C967.519 338.559 967.655 338.5 967.799 338.496L1010.19 337.987C1010.37 337.987 1010.52 338.059 1010.63 338.205C1010.73 338.35 1010.77 338.532 1010.73 338.678L1007.32 351.483C1007.25 351.737 1007.03 351.883 1006.81 351.883L967.799 351.993ZM968.344 339.587V350.901L1006.34 350.791L1009.46 339.079L968.344 339.587Z" fill="white"/>
<path d="M867.106 181.925C867.106 181.925 854.137 200.113 857.081 214.81C860.024 229.507 876.877 239.219 902.922 238.31C900.706 260.355 904.702 339.659 904.702 339.659L967.834 339.04L1004.49 338.531V231.871L953.34 192.365C953.34 192.365 928.93 182.58 867.106 181.925Z" fill="#202034"/>
<path d="M904.666 340.205C904.375 340.205 904.121 339.986 904.121 339.695C904.085 338.895 900.235 261.52 902.304 238.893C889.918 239.257 879.129 237.183 871.066 232.927C863.075 228.671 858.025 222.451 856.536 214.957C854.974 207.244 857.845 198.587 860.495 192.694C863.365 186.327 866.635 181.707 866.67 181.671C866.78 181.525 866.962 181.453 867.107 181.453C927.442 182.072 952.469 191.493 953.522 191.894C953.559 191.929 953.632 191.929 953.667 191.966L1004.81 231.472C1004.96 231.581 1005.03 231.727 1005.03 231.909V338.567C1005.03 338.711 1004.97 338.847 1004.87 338.949C1004.77 339.05 1004.63 339.109 1004.49 339.114L967.834 339.623L904.666 340.205ZM902.886 237.765C903.032 237.765 903.177 237.838 903.286 237.947C903.394 238.056 903.431 238.201 903.431 238.383C901.36 259.192 904.848 332.201 905.175 339.114L967.762 338.495L1003.9 337.986V232.126L953.05 192.839C951.379 192.221 926.497 183.126 867.397 182.471C865.907 184.617 854.938 201.278 857.626 214.666C859.042 221.868 863.873 227.798 871.611 231.909C879.602 236.201 890.427 238.201 902.886 237.765Z" fill="white"/>
<path d="M967.799 339.582C967.507 339.582 967.253 339.364 967.253 339.036L964.675 231.213L932.2 201.638C931.983 201.42 931.946 201.092 932.164 200.875C932.383 200.657 932.709 200.619 932.927 200.838L965.546 230.595C965.655 230.704 965.728 230.849 965.728 230.994L968.306 339.073C968.343 339.327 968.125 339.582 967.799 339.582Z" fill="white"/>
<path d="M899.618 339.697L976.371 339.042L973.429 351.41L903.541 351.665L899.618 339.697Z" fill="#0B0F19"/>
<path d="M903.505 352.208C903.393 352.207 903.285 352.171 903.194 352.106C903.103 352.041 903.034 351.95 902.996 351.844L899.074 339.876C899.038 339.694 899.038 339.513 899.146 339.403C899.255 339.293 899.401 339.186 899.582 339.186L976.336 338.531C976.518 338.531 976.663 338.603 976.772 338.748C976.88 338.894 976.917 339.04 976.882 339.221L973.939 351.59C973.866 351.844 973.648 352.026 973.394 352.026L903.505 352.208ZM900.346 340.24L903.905 351.117L972.995 350.863L975.682 339.585L900.346 340.24Z" fill="white"/>
<path d="M1000.78 351.444V359.92L1023.12 375.781L967.8 376.254V351.444H1000.78Z" fill="#0B0F19"/>
<path d="M967.799 376.801C967.653 376.801 967.508 376.728 967.4 376.656C967.29 376.546 967.254 376.4 967.254 376.255V351.445C967.259 351.302 967.317 351.166 967.419 351.064C967.52 350.963 967.656 350.904 967.799 350.9H1000.78C1000.92 350.904 1001.06 350.963 1001.16 351.064C1001.26 351.165 1001.32 351.302 1001.33 351.445V359.667L1023.41 375.346C1023.59 375.491 1023.7 375.746 1023.63 375.964C1023.56 376.181 1023.34 376.328 1023.12 376.365L967.799 376.801ZM968.344 351.991V375.71L1021.41 375.237L1000.45 360.358C1000.31 360.249 1000.24 360.104 1000.24 359.921V351.955H968.344V351.991Z" fill="white"/>
<path d="M905.104 351.66L967.8 351.406V360.718L989.994 375.96L905.648 377.016L905.104 351.66Z" fill="#0B0F19"/>
<path d="M905.648 377.562C905.505 377.558 905.368 377.5 905.267 377.398C905.166 377.297 905.107 377.161 905.102 377.017L904.558 351.698C904.558 351.552 904.593 351.407 904.703 351.298C904.813 351.189 904.957 351.116 905.102 351.116L967.799 350.862C967.944 350.862 968.089 350.934 968.199 351.007C968.307 351.116 968.344 351.261 968.344 351.407V360.428L990.284 375.49C990.465 375.635 990.574 375.853 990.501 376.108C990.429 376.325 990.211 376.508 989.992 376.508L905.648 377.562ZM905.648 352.207L906.192 376.435L988.25 375.453L967.471 361.192C967.326 361.083 967.218 360.938 967.218 360.756V351.99L905.648 352.207Z" fill="white"/>
<path d="M916.506 169.116L918.105 150.928L916.833 131.83L918.105 150.928L932.053 140.487C932.053 140.487 913.891 115.132 905.827 113.859C901.25 117.17 897.582 111.822 897.582 111.822C897.582 111.822 872.918 112.622 866.306 136.122C880.618 140.706 890.971 143.507 890.971 143.507L893.913 132.23L887.484 163.26L916.506 169.116Z" fill="#0B0F19"/>
<path d="M916.508 169.661H916.398L887.412 163.767C887.265 163.73 887.156 163.658 887.048 163.548C886.939 163.438 886.939 163.294 886.975 163.148L890.935 144.05H890.861C890.753 144.013 880.291 141.212 866.161 136.665C865.871 136.593 865.725 136.265 865.797 136.01C869.248 123.677 877.712 117.602 884.214 114.693C891.225 111.564 897.328 111.31 897.582 111.31C897.672 111.307 897.761 111.326 897.843 111.364C897.925 111.402 897.997 111.458 898.054 111.529C898.054 111.565 899.725 113.93 902.086 114.33C903.249 114.512 904.411 114.221 905.537 113.42C905.645 113.347 905.791 113.312 905.936 113.312C914.146 114.622 931.763 139.104 932.527 140.159C932.707 140.413 932.635 140.74 932.417 140.922L918.687 151.217L917.088 169.188C917.088 169.334 916.98 169.479 916.87 169.588C916.725 169.625 916.616 169.661 916.508 169.661ZM888.138 162.786L915.999 168.46L917.561 150.927L916.289 131.864V131.828C916.289 131.537 916.508 131.318 916.798 131.281C917.088 131.245 917.342 131.5 917.379 131.791L918.577 149.871L931.292 140.34C928.894 137.029 913.238 115.931 905.973 114.403C904.666 115.275 903.285 115.603 901.904 115.385C899.579 114.985 897.872 113.057 897.328 112.366C896.056 112.438 890.608 112.947 884.615 115.64C875.678 119.677 869.757 126.408 866.997 135.72C879.056 139.576 888.355 142.159 890.608 142.778L893.405 132.01C893.478 131.719 893.768 131.537 894.059 131.61C894.349 131.683 894.531 131.974 894.458 132.265L888.138 162.786Z" fill="white"/>
<path d="M866.309 136.088C866.309 136.088 857.554 175.886 859.261 178.832C860.969 181.779 908.663 191.455 921.123 191.891C933.582 192.328 929.913 173.812 926.099 171.666C922.321 169.52 887.486 163.226 887.486 163.226L890.972 143.473L866.309 136.088Z" fill="#0B0F19"/>
<path d="M921.559 192.437H921.086C914.366 192.183 898.637 189.455 886.033 186.835C878.259 185.236 860.024 181.233 858.789 179.124C858.462 178.578 857.627 177.123 861.586 156.278L865.764 136.015C865.8 135.87 865.873 135.725 866.018 135.651C866.163 135.578 866.309 135.543 866.454 135.615L891.154 143C891.409 143.072 891.591 143.327 891.518 143.618L888.14 162.826C892.716 163.663 922.793 169.193 926.39 171.229C929.113 172.758 931.293 180.797 929.768 186.29C928.933 189.091 926.862 192.437 921.559 192.437ZM866.708 136.781C863.33 152.131 858.572 176.54 859.734 178.542C860.351 179.487 868.96 182.142 886.36 185.781C898.892 188.364 914.511 191.092 921.123 191.346C925.082 191.491 927.625 189.673 928.678 185.963C929.369 183.561 929.332 180.469 928.569 177.451C927.915 174.831 926.825 172.721 925.809 172.139C922.865 170.465 899.365 165.919 887.377 163.772C887.086 163.735 886.869 163.444 886.941 163.153L890.355 143.909L866.708 136.779V136.781Z" fill="white"/>
<path d="M918.65 150.639L929.693 142.236L938.266 156.788L929.73 171.849L916.544 168.975L918.65 150.641V150.639Z" fill="#0B0F19"/>
<path d="M929.729 172.39H929.62L916.434 169.517C916.144 169.444 915.962 169.19 915.998 168.935L918.142 150.6C918.142 150.455 918.25 150.309 918.359 150.236L929.401 141.833C929.511 141.724 929.692 141.688 929.838 141.724C929.985 141.761 930.129 141.833 930.201 141.978L938.774 156.53C938.882 156.712 938.882 156.894 938.774 157.076L930.201 172.136C930.092 172.282 929.91 172.39 929.729 172.39ZM917.124 168.571L929.438 171.227L937.647 156.785L929.547 143.034L919.158 150.928L917.124 168.571Z" fill="white"/>
<path d="M919.124 113.934C927.152 111.241 923.955 95.9993 919.669 89.8875C912.078 79.0475 893.37 80.9027 888.502 95.563C887.449 98.7636 880.911 100.182 883.454 105.276C885.233 108.841 892.353 106.986 892.353 106.986C892.353 106.986 914.329 115.535 919.124 113.934Z" fill="#0B0F19"/>
<path d="M917.562 114.661C910.878 114.661 894.278 108.332 892.316 107.567C891.154 107.858 884.761 109.168 882.981 105.53C881.165 101.856 883.598 99.8187 885.561 98.1444C886.65 97.2352 887.667 96.3614 887.994 95.38C890.282 88.4324 895.912 83.6295 903.032 82.5749C909.862 81.5569 916.4 84.2479 920.105 89.5225C923.446 94.252 925.808 103.601 923.919 109.384C923.084 111.931 921.522 113.641 919.269 114.368C918.834 114.587 918.253 114.659 917.562 114.659V114.661ZM892.353 106.475C892.426 106.475 892.498 106.475 892.535 106.512C898.02 108.621 912.041 113.605 917.49 113.605C918.071 113.605 918.579 113.533 918.942 113.423C920.831 112.768 922.175 111.349 922.902 109.131C924.646 103.783 922.393 94.725 919.233 90.2142C915.746 85.2671 909.607 82.757 903.214 83.7029C896.493 84.6854 891.226 89.1962 889.047 95.7442C888.611 97.0543 887.45 98.0356 886.287 99.0182C884.289 100.728 882.545 102.183 883.962 105.057C884.761 106.658 886.904 106.985 888.575 106.948C890.5 106.948 892.208 106.475 892.208 106.475H892.353Z" fill="white"/>
<path d="M897.584 111.826L899.509 106.333C899.509 106.333 897.511 103.568 897.584 102.004C897.657 100.44 894.569 101.531 895.368 98.3303C896.204 95.1296 900.236 98.6945 902.234 99.5304C904.231 100.366 907.973 98.4024 909.934 98.257C911.279 98.1482 912.622 99.4571 912.986 100.294C913.748 102.041 912.695 104.514 910.661 105.678C908.627 106.878 905.611 107.06 905.611 107.06L905.321 114.189C905.321 114.189 904.885 115.682 900.962 114.59C897.039 113.462 897.584 111.826 897.584 111.826Z" fill="white"/>
<path d="M903.433 115.5C902.779 115.5 901.908 115.391 900.818 115.1C898.929 114.591 897.729 113.827 897.222 112.918C896.858 112.263 897.003 111.753 897.04 111.644L898.856 106.406C898.348 105.643 896.895 103.46 897.003 101.968C897.003 101.786 896.967 101.714 896.349 101.458C895.551 101.131 894.206 100.586 894.824 98.1842C895.042 97.3837 895.441 96.8386 896.022 96.6199C897.33 96.0736 899.146 97.1661 900.745 98.1108L902.415 99.0201C903.542 99.4564 905.431 98.8746 907.101 98.365C908.119 98.0375 909.099 97.7466 909.863 97.71C911.46 97.6012 912.986 99.0201 913.458 100.075C914.331 102.039 913.168 104.84 910.916 106.15C909.281 107.096 907.101 107.46 906.122 107.569L905.83 114.189C905.83 114.225 905.83 114.262 905.795 114.298C905.83 114.443 905.467 115.498 903.433 115.498V115.5ZM898.093 111.972C898.093 112.081 897.984 113.172 901.108 114.046C903.65 114.737 904.595 114.3 904.777 114.009L905.067 107.025C905.067 106.734 905.286 106.515 905.576 106.515C905.613 106.515 908.482 106.333 910.371 105.205C912.151 104.15 913.132 101.968 912.478 100.512C912.151 99.7851 910.988 98.7292 909.972 98.8025C909.318 98.8392 908.41 99.1301 907.465 99.4209C905.613 100.003 903.505 100.658 902.016 100.039C901.508 99.8205 900.853 99.4576 900.201 99.0567C898.966 98.3296 897.258 97.3103 896.422 97.6379C896.314 97.6745 896.022 97.7833 895.842 98.475C895.478 99.9305 895.987 100.148 896.75 100.476C897.294 100.694 898.13 101.057 898.056 102.04C897.983 103.022 899.146 104.986 899.874 106.006C899.982 106.151 900.019 106.333 899.946 106.515L898.093 111.972Z" fill="#0B0F19"/>
<path d="M1108.67 193.276H743.493C743.35 193.272 743.214 193.213 743.113 193.112C743.012 193.01 742.953 192.874 742.949 192.73C742.954 192.587 743.012 192.451 743.113 192.349C743.215 192.248 743.35 192.189 743.493 192.185H1108.67C1108.81 192.189 1108.94 192.248 1109.05 192.349C1109.15 192.451 1109.21 192.587 1109.21 192.73C1109.21 193.022 1108.99 193.276 1108.67 193.276Z" fill="white"/>
<path d="M835.068 192.562L783.947 389.239L785.001 389.514L836.123 192.837L835.068 192.562Z" fill="white" fill-opacity="0.55"/>
<path d="M790.478 192.537L789.442 192.876L856.529 397.819L857.565 397.479L790.478 192.537ZM1018.7 192.546L1017.66 192.891L1085.84 397.82L1086.88 397.475L1018.7 192.546Z" fill="white" fill-opacity="0.55"/>
<path d="M1064.41 192.542L1013.29 386.489L1014.35 386.768L1065.46 192.821L1064.41 192.542Z" fill="white" fill-opacity="0.55"/>
<path d="M764.052 168.899C763.834 168.899 763.616 168.754 763.543 168.572C763.47 168.39 756.678 151.511 747.342 147.255C747.052 147.146 746.943 146.818 747.089 146.527C747.197 146.237 747.524 146.128 747.815 146.273C751.92 148.165 755.987 152.422 759.91 158.933C762.816 163.771 764.56 168.1 764.596 168.173C764.647 168.304 764.645 168.449 764.591 168.577C764.537 168.706 764.435 168.809 764.306 168.864C764.197 168.9 764.124 168.9 764.052 168.9V168.899Z" fill="white"/>
<path d="M747.565 146.743C747.565 146.743 740.19 135.03 737.285 138.414C733.253 143.07 747.565 146.743 747.565 146.743Z" fill="#565973"/>
<path d="M747.565 147.291H747.419C746.403 147 737.285 144.562 736.123 140.888C735.832 139.906 736.05 138.96 736.849 138.087C737.358 137.505 738.012 137.215 738.775 137.287C740.337 137.395 742.371 138.996 744.841 142.052C746.621 144.271 747.965 146.38 748.037 146.49C748.094 146.585 748.12 146.695 748.114 146.805C748.107 146.915 748.068 147.021 748 147.109C747.892 147.217 747.746 147.291 747.565 147.291ZM738.556 138.341C738.193 138.341 737.902 138.487 737.648 138.778C737.139 139.396 736.958 139.978 737.139 140.561C737.83 142.815 743.097 144.853 746.256 145.835C744.367 143.071 740.808 138.523 738.628 138.378C738.628 138.341 738.592 138.341 738.555 138.341H738.556Z" fill="white"/>
<path d="M757.078 155.618C754.463 149.943 746.835 160.747 746.835 160.747C746.835 160.747 758.532 158.71 757.078 155.618Z" fill="#565973"/>
<path d="M747.367 161.295C747.274 161.291 747.184 161.265 747.102 161.221C747.02 161.177 746.949 161.116 746.894 161.041C746.841 160.947 746.812 160.84 746.812 160.732C746.812 160.623 746.841 160.517 746.894 160.422C747.44 159.659 752.161 153.111 755.686 153.438C756.739 153.547 757.538 154.202 758.084 155.402C758.337 155.912 758.302 156.493 758.047 157.003C756.667 159.622 748.384 161.15 747.44 161.295H747.367ZM755.431 154.493C753.396 154.493 750.346 157.767 748.638 159.913C751.981 159.221 756.34 157.876 757.066 156.457C757.174 156.238 757.174 156.057 757.102 155.838C756.702 155.001 756.231 154.565 755.577 154.528C755.54 154.492 755.504 154.492 755.432 154.492L755.431 154.493Z" fill="white"/>
<path d="M769.358 125.285C770.738 142.637 774.588 168.646 774.588 168.646L769.358 125.285Z" fill="#0B0F19"/>
<path d="M774.551 169.23C774.297 169.23 774.042 169.048 774.005 168.757C773.969 168.503 770.155 142.529 768.775 125.359C768.738 125.068 768.993 124.813 769.284 124.777C769.574 124.742 769.829 124.996 769.865 125.287C771.208 142.421 775.06 168.359 775.095 168.613C775.106 168.685 775.103 168.758 775.085 168.829C775.067 168.899 775.035 168.965 774.991 169.023C774.947 169.081 774.892 169.129 774.828 169.165C774.765 169.201 774.695 169.223 774.623 169.231H774.551V169.23Z" fill="white"/>
<path d="M768.486 108.84C770.665 108.621 777.167 127.974 769.14 127.065C762.02 126.228 768.486 108.84 768.486 108.84Z" fill="#565973"/>
<path d="M769.684 127.611C769.502 127.611 769.284 127.611 769.103 127.575C767.832 127.429 766.852 126.811 766.233 125.756C763.399 121.137 767.832 109.132 768.013 108.623C768.085 108.44 768.267 108.295 768.486 108.258C769.067 108.185 769.649 108.658 770.302 109.749C772.227 112.878 775.096 122.227 772.735 125.974C772.009 127.065 770.991 127.611 769.684 127.611ZM768.813 109.605C768.449 110.66 767.686 112.988 767.106 115.643C766.089 120.228 766.089 123.537 767.142 125.211C767.614 125.975 768.305 126.411 769.213 126.521C770.957 126.74 771.973 125.866 772.374 123.902C773.282 119.21 770.194 111.025 768.814 109.606L768.813 109.605ZM770.303 135.796C770.21 135.791 770.12 135.766 770.038 135.722C769.956 135.678 769.885 135.617 769.831 135.542C769.794 135.47 766.126 129.393 760.241 128.92C754.466 128.484 753.339 128.847 753.304 128.884C753.05 129.029 752.723 128.92 752.578 128.629C752.432 128.375 752.578 128.011 752.832 127.902C753.013 127.794 754.248 127.357 760.315 127.83C766.744 128.34 770.594 134.706 770.74 134.96C770.885 135.214 770.812 135.542 770.558 135.724C770.486 135.797 770.376 135.797 770.304 135.797L770.303 135.796Z" fill="white"/>
<path d="M752.83 127.724C751.704 120.375 740.806 129.179 740.806 129.179C740.806 129.179 753.593 132.744 752.83 127.724Z" fill="#565973"/>
<path d="M748.652 130.96C747.606 130.956 746.561 130.871 745.528 130.706C742.949 130.342 740.733 129.723 740.625 129.723C740.443 129.687 740.261 129.505 740.226 129.324C740.208 129.225 740.215 129.123 740.247 129.027C740.279 128.932 740.334 128.846 740.408 128.777C740.698 128.559 747.527 123.102 751.196 124.521C752.359 124.994 753.085 126.048 753.339 127.649C753.484 128.595 753.231 129.396 752.577 129.941C751.85 130.596 750.506 130.96 748.653 130.96H748.652ZM742.005 128.959C744.947 129.651 750.287 130.56 751.885 129.142C752.248 128.814 752.357 128.414 752.284 127.831C752.102 126.595 751.63 125.868 750.83 125.54C748.614 124.667 744.292 127.286 742.004 128.959H742.005ZM771.246 144.237C771.158 144.23 771.071 144.205 770.992 144.165C770.738 144.019 770.629 143.692 770.738 143.438C770.848 143.183 773.934 137.144 781.563 132.924C787.302 129.759 790.534 128.777 790.644 128.741C790.784 128.703 790.933 128.719 791.061 128.787C791.189 128.855 791.287 128.968 791.335 129.105C791.373 129.245 791.356 129.394 791.289 129.522C791.221 129.651 791.108 129.749 790.971 129.797C790.935 129.797 787.702 130.779 782.108 133.871C774.77 137.946 771.756 143.875 771.72 143.911C771.684 144.007 771.62 144.09 771.535 144.149C771.451 144.208 771.35 144.239 771.247 144.238L771.246 144.237Z" fill="white"/>
<path d="M791.187 129.288C788.789 120.521 809.022 126.014 809.022 126.014C809.022 126.014 792.894 135.545 791.187 129.288Z" fill="#565973"/>
<path d="M794.603 131.94C793.84 131.94 793.149 131.832 792.569 131.613C791.587 131.213 790.933 130.485 790.643 129.43C790.207 127.757 790.461 126.41 791.406 125.464C793.004 123.863 796.491 123.391 801.794 124.046C805.644 124.519 809.095 125.464 809.132 125.464C809.35 125.537 809.496 125.682 809.532 125.901C809.569 126.119 809.459 126.337 809.278 126.447C808.879 126.701 799.98 131.94 794.603 131.94ZM797.618 124.847C795.257 124.847 793.223 125.211 792.206 126.229C791.515 126.921 791.37 127.867 791.697 129.139C791.879 129.831 792.315 130.303 792.969 130.595C794.676 131.286 797.909 130.631 802.341 128.74C804.447 127.83 806.373 126.848 807.536 126.193C804.993 125.574 800.997 124.847 797.619 124.847H797.618ZM785.848 169.228C785.558 169.228 785.303 169.01 785.303 168.683C785.303 168.21 784.976 157.151 789.189 153.84C789.443 153.658 789.77 153.695 789.952 153.949C790.134 154.203 790.097 154.531 789.844 154.713C786.065 157.696 786.393 168.573 786.393 168.681C786.393 168.972 786.174 169.227 785.847 169.227L785.848 169.228Z" fill="white"/>
<path d="M803.573 143.984C803.573 143.984 784.14 147.913 789.188 154.279C792.566 158.572 803.573 143.984 803.573 143.984Z" fill="#565973"/>
<path d="M790.825 155.625C789.989 155.625 789.263 155.298 788.754 154.606C787.809 153.441 787.591 152.241 788.028 151.041C789.772 146.24 802.921 143.547 803.466 143.439C803.577 143.417 803.692 143.43 803.796 143.476C803.899 143.521 803.987 143.597 804.047 143.693C804.104 143.788 804.13 143.897 804.124 144.008C804.117 144.118 804.078 144.224 804.01 144.311C803.683 144.784 795.474 155.552 790.825 155.624V155.625ZM802.231 144.857C797.945 145.875 790.207 148.35 789.046 151.442C788.755 152.243 788.937 153.08 789.627 153.952C789.954 154.352 790.353 154.534 790.861 154.534C793.877 154.497 799.398 148.35 802.231 144.857Z" fill="white"/>
<path d="M781.016 149.112C785.557 146.966 786.501 160.207 786.501 160.207C786.501 160.207 776.585 151.222 781.016 149.112Z" fill="#565973"/>
<path d="M786.538 160.79C786.47 160.794 786.403 160.783 786.34 160.758C786.277 160.733 786.221 160.694 786.174 160.645C786.102 160.571 784.358 158.972 782.651 156.97C780.253 154.169 779.164 151.986 779.419 150.459C779.527 149.658 780.036 149.003 780.835 148.64C781.671 148.24 782.506 148.276 783.233 148.712C784.577 149.513 785.631 151.695 786.394 155.26C786.939 157.807 787.085 160.135 787.12 160.244C787.12 160.463 787.011 160.68 786.83 160.79C786.684 160.753 786.611 160.79 786.539 160.79H786.538ZM781.271 149.623C780.799 149.841 780.545 150.169 780.472 150.605C780.181 152.679 783.632 156.607 785.847 158.826C785.484 155.771 784.504 150.714 782.651 149.623C782.216 149.368 781.78 149.368 781.271 149.623Z" fill="white"/>
<path d="M791.99 168.354H759.116V192.69H791.99V168.354Z" fill="#3E4265" fill-opacity="0.57"/>
<path d="M791.989 193.236H759.115C758.971 193.232 758.835 193.173 758.734 193.071C758.632 192.97 758.573 192.833 758.569 192.69V168.317C758.573 168.174 758.632 168.037 758.734 167.935C758.835 167.834 758.971 167.775 759.115 167.771H791.989C792.132 167.775 792.269 167.834 792.37 167.935C792.472 168.037 792.53 168.174 792.534 168.317V192.69C792.534 193.017 792.281 193.236 791.989 193.236ZM759.66 192.145H791.445V168.862H759.66V192.145Z" fill="white"/>
<path d="M916.509 192.729L950.181 124.339H1040.85L1011.02 192.729H916.509Z" fill="url(#paint0_linear_20005153_6355)"/>
<path d="M1011.06 193.276H916.507C916.326 193.276 916.144 193.167 916.035 193.022C915.927 192.877 915.927 192.658 915.999 192.476L949.672 124.086C949.781 123.904 949.962 123.795 950.144 123.795H1040.85C1041.03 123.795 1041.21 123.904 1041.32 124.049C1041.37 124.124 1041.4 124.21 1041.4 124.299C1041.41 124.389 1041.39 124.478 1041.35 124.559L1011.53 192.949C1011.46 193.167 1011.28 193.276 1011.06 193.276ZM917.379 192.185H1010.7L1040.05 124.886H950.543L917.379 192.185Z" fill="#0B0F19"/>
<path d="M987.05 155.256C987.05 155.256 983.563 154.31 981.093 156.057C980.003 156.821 976.624 159.439 978.404 161.659C980.185 163.878 983.489 161.95 984.761 160.021C986.032 158.057 987.05 155.256 987.05 155.256Z" fill="white"/>
<path d="M980.439 163.154C979.458 163.154 978.623 162.754 977.969 161.954C977.726 161.665 977.549 161.327 977.449 160.963C977.348 160.599 977.328 160.217 977.388 159.844C977.642 158.026 979.639 156.352 980.766 155.551C983.417 153.696 987.014 154.642 987.196 154.679C987.341 154.715 987.449 154.824 987.523 154.97C987.588 155.106 987.6 155.261 987.558 155.406C987.523 155.515 986.505 158.316 985.198 160.281C984.289 161.663 982.401 163.082 980.584 163.155H980.439V163.154ZM984.834 155.551C983.781 155.551 982.473 155.733 981.383 156.497C980.729 156.933 978.659 158.534 978.441 160.062C978.368 160.535 978.514 160.935 978.805 161.335C979.003 161.596 979.263 161.802 979.561 161.935C979.859 162.069 980.186 162.125 980.512 162.099C981.964 162.026 983.526 160.826 984.253 159.698C985.125 158.352 985.887 156.569 986.251 155.66C985.924 155.588 985.415 155.551 984.834 155.551Z" fill="#0B0F19"/>
<path d="M1081.71 186.325H1081.64C1081.35 186.289 1081.13 185.999 1081.17 185.706L1093.08 93.4173L1039.14 63.9879C1038.89 63.8425 1038.78 63.5149 1038.92 63.2607C1039.07 63.0066 1039.39 62.8966 1039.65 63.042L1093.95 92.6534C1094.14 92.7622 1094.24 92.981 1094.24 93.1997L1082.26 185.854C1082.22 186.145 1081.97 186.326 1081.71 186.326V186.325Z" fill="white" fill-opacity="0.55"/>
<path d="M1039.39 63.5171L1013.13 74.6492L1039.9 91.3101L1039.39 63.5171Z" fill="#3E4265" fill-opacity="0.55"/>
<path d="M1039.9 91.8542C1039.79 91.8542 1039.72 91.8175 1039.61 91.7821L1012.84 75.1212C1012.66 75.0124 1012.59 74.8303 1012.59 74.6116C1012.59 74.3928 1012.73 74.2474 1012.91 74.1386L1039.18 63.0077C1039.36 62.9344 1039.54 62.9711 1039.68 63.0444C1039.83 63.1532 1039.94 63.2986 1039.94 63.4807L1040.45 91.2737C1040.45 91.4558 1040.34 91.6733 1040.16 91.7466C1040.13 91.7822 1040.09 91.8104 1040.04 91.8292C1040 91.848 1039.95 91.8569 1039.9 91.8554V91.8542ZM1014.33 74.757L1039.36 90.3265L1038.89 64.3533L1014.33 74.757Z" fill="white"/>
<path d="M1026.17 91.0134C1030.02 91.0134 1033.11 87.8849 1033.11 84.0658C1033.11 80.2101 1029.99 77.1182 1026.17 77.1182C1022.32 77.1182 1019.24 80.2467 1019.24 84.0658C1019.24 87.8849 1022.32 91.0134 1026.17 91.0134Z" fill="#0B0F19"/>
<path d="M1026.17 91.5596C1022.03 91.5596 1018.69 88.2123 1018.69 84.0657C1018.69 79.9191 1022.03 76.5718 1026.17 76.5718C1030.32 76.5718 1033.66 79.9191 1033.66 84.0657C1033.66 88.1768 1030.31 91.5596 1026.17 91.5596ZM1026.17 77.6264C1024.48 77.63 1022.86 78.3057 1021.66 79.5056C1020.46 80.7056 1019.78 82.332 1019.78 84.029C1019.78 85.726 1020.46 87.3525 1021.66 88.5524C1022.86 89.7524 1024.48 90.428 1026.17 90.4316C1027.87 90.428 1029.49 89.7524 1030.69 88.5524C1031.89 87.3525 1032.56 85.726 1032.57 84.029C1032.56 82.332 1031.89 80.7056 1030.69 79.5056C1029.49 78.3057 1027.87 77.63 1026.17 77.6264Z" fill="white"/>
<path d="M1099.08 184.833H1063.84V192.326H1099.11V184.833H1099.08Z" fill="#3E4265" fill-opacity="0.57"/>
<path d="M1099.08 192.907H1063.84C1063.7 192.903 1063.56 192.844 1063.46 192.743C1063.36 192.641 1063.3 192.505 1063.3 192.362V184.868C1063.3 184.725 1063.36 184.588 1063.46 184.487C1063.56 184.385 1063.7 184.326 1063.84 184.322H1099.11C1099.26 184.326 1099.39 184.385 1099.49 184.487C1099.59 184.588 1099.65 184.725 1099.66 184.868V192.362C1099.62 192.653 1099.4 192.907 1099.08 192.907ZM1064.39 191.816H1098.57V185.413H1064.39V191.816Z" fill="white"/>
<path d="M840.771 72.5731C838.281 72.5715 835.836 71.9058 833.688 70.6446C830.42 68.7471 828.035 65.6305 827.054 61.9764C826.074 58.3224 826.579 54.4284 828.458 51.146C830.346 47.8366 833.435 45.4718 837.103 44.4892C840.771 43.5067 844.622 44.0163 847.927 45.9081C851.232 47.7999 853.594 50.8918 854.574 54.5655C855.554 58.2241 855.045 62.1227 853.157 65.4055C851.268 68.7149 848.181 71.0809 844.513 72.0622C843.296 72.4076 842.036 72.5792 840.771 72.5719V72.5731ZM840.808 45.1443C839.656 45.1459 838.509 45.2925 837.393 45.5806C834.015 46.4898 831.145 48.6725 829.401 51.729C825.768 58.0228 827.948 66.0984 834.233 69.7354C835.73 70.601 837.383 71.1623 839.097 71.3871C840.811 71.6119 842.553 71.4958 844.222 71.0455C847.6 70.1362 850.47 67.9535 852.214 64.8971C853.078 63.3977 853.639 61.7422 853.863 60.0255C854.088 58.3089 853.972 56.5647 853.522 54.893C852.614 51.5102 850.435 48.6358 847.383 46.8894C845.381 45.7427 843.114 45.141 840.808 45.1443ZM841.68 64.8983C841.613 64.9021 841.545 64.891 841.482 64.8659C841.419 64.8408 841.363 64.8022 841.317 64.7529L835.759 59.5504C835.658 59.4512 835.598 59.3173 835.591 59.1757C835.584 59.034 835.631 58.895 835.723 58.7866C835.822 58.6853 835.955 58.6252 836.097 58.6184C836.238 58.6116 836.377 58.6586 836.485 58.7499L842.079 63.9524C842.18 64.0516 842.24 64.1855 842.247 64.3271C842.254 64.4688 842.207 64.6077 842.116 64.7162C842.06 64.7758 841.993 64.8228 841.918 64.8542C841.842 64.8856 841.762 64.9006 841.68 64.8983ZM846.585 63.2595C846.331 63.2595 846.112 63.0774 846.039 62.8232L844.841 56.0564C844.804 55.7656 844.986 55.4747 845.276 55.438C845.346 55.4229 845.418 55.4224 845.487 55.4365C845.557 55.4506 845.623 55.4791 845.681 55.5201C845.739 55.5612 845.788 55.6138 845.825 55.6748C845.861 55.7358 845.885 55.8037 845.894 55.8743L847.092 62.6411C847.129 62.9319 846.947 63.2228 846.657 63.2595H846.583H846.585ZM834.816 56.4621C834.525 56.4621 834.27 56.2434 834.27 55.9525C834.27 55.8438 834.198 53.0427 835.941 52.1689C837.139 51.5872 838.266 52.4231 838.956 53.2969C839.647 52.2789 840.954 50.5692 842.299 50.3871C843.861 50.1683 845.169 52.6064 845.423 53.1148C845.568 53.369 845.46 53.6965 845.169 53.842C844.915 53.9874 844.588 53.8786 844.443 53.5878C843.971 52.6419 843.026 51.4051 842.445 51.4784C841.464 51.6239 840.084 53.4423 839.43 54.5703C839.321 54.7524 839.139 54.8245 838.958 54.8245C838.865 54.8201 838.775 54.795 838.693 54.751C838.611 54.707 838.54 54.6453 838.485 54.5703C838.485 54.5337 837.359 52.6785 836.379 53.1515C835.253 53.6965 835.326 55.8792 835.326 55.9159C835.363 56.1701 835.144 56.4255 834.817 56.4609L834.816 56.4621Z" fill="white" fill-opacity="0.55"/>
<path d="M840.081 76.3563C839.791 76.3563 839.536 76.3196 839.355 76.2475C837.503 75.4104 837.648 72.1364 837.648 71.7367C837.648 71.5913 837.72 71.4459 837.867 71.3371C837.975 71.2283 838.12 71.1917 838.302 71.2283C838.339 71.2283 843.133 71.92 845.712 70.5366C848.4 69.0457 851.742 66.6809 851.778 66.6809C851.997 66.5355 852.324 66.5721 852.504 66.7542C852.758 67.0451 854.938 69.6641 853.703 71.3383C852.685 72.7205 843.204 76.3587 840.08 76.3587L840.081 76.3563ZM838.773 72.4272C838.81 73.4098 839.027 74.9374 839.826 75.2649C841.061 75.8112 851.85 72.0276 852.83 70.7175C853.339 70.0258 852.54 68.6436 851.994 67.8798C851.013 68.5715 848.435 70.3167 846.255 71.518C843.894 72.7914 840.225 72.5726 838.772 72.4272H838.773Z" fill="#FFFEFE" fill-opacity="0.55"/>
<path d="M843.569 79.2688H843.315C842.407 79.2321 841.753 78.9779 841.426 78.4683C840.7 77.4136 840.772 76.6132 840.954 76.1402C841.172 75.5585 841.717 75.1222 842.407 74.9034L851.634 72.0303C851.779 71.9936 851.961 71.9936 852.106 72.1024C852.288 72.2112 853.777 73.2304 853.995 74.4672C854.069 74.9768 853.959 75.4497 853.632 75.8493C852.579 77.1228 846.658 79.2688 843.57 79.2688H843.569ZM851.706 73.1571L842.661 75.9948C842.407 76.0681 842.044 76.2135 841.935 76.5411C841.79 76.8686 841.935 77.3415 842.299 77.8866C842.335 77.9587 842.553 78.1408 843.317 78.1774C846.222 78.3229 852.034 76.0314 852.761 75.1576C852.906 74.9755 852.942 74.8301 852.906 74.648C852.834 74.0663 852.143 73.4479 851.707 73.1558L851.706 73.1571Z" fill="white" fill-opacity="0.55"/>
<path d="M848.69 84.5396C848.363 84.5396 848.144 84.4663 847.999 84.3942C847.2 83.8124 845.419 80.1742 844.912 79.0462C844.876 78.9791 844.857 78.9042 844.857 78.8281C844.857 78.752 844.876 78.6771 844.912 78.61C844.984 78.4645 845.093 78.3558 845.239 78.3191L851.995 76.0998C852.141 76.0631 852.286 76.0631 852.394 76.1364C852.54 76.2085 852.613 76.3185 852.648 76.4639L854.501 82.1394C854.573 82.3936 854.464 82.6857 854.21 82.7944C851.16 84.14 849.561 84.5408 848.688 84.5408L848.69 84.5396ZM848.618 83.4849C849.126 83.5937 851.378 82.8299 853.34 81.9939L851.815 77.3011L846.148 79.1562L848.618 83.4849Z" fill="white" fill-opacity="0.55"/>
<path opacity="0.7" d="M111.68 124V106.72H118.352C118.52 106.72 118.708 106.728 118.916 106.744C119.132 106.752 119.348 106.776 119.564 106.816C120.468 106.952 121.232 107.268 121.856 107.764C122.488 108.252 122.964 108.868 123.284 109.612C123.612 110.356 123.776 111.18 123.776 112.084C123.776 113.388 123.432 114.52 122.744 115.48C122.056 116.44 121.072 117.044 119.792 117.292L119.18 117.436H113.444V124H111.68ZM122.144 124L118.736 116.968L120.428 116.32L124.172 124H122.144ZM113.444 115.756H118.304C118.448 115.756 118.616 115.748 118.808 115.732C119 115.716 119.188 115.688 119.372 115.648C119.964 115.52 120.448 115.276 120.824 114.916C121.208 114.556 121.492 114.128 121.676 113.632C121.868 113.136 121.964 112.62 121.964 112.084C121.964 111.548 121.868 111.032 121.676 110.536C121.492 110.032 121.208 109.6 120.824 109.24C120.448 108.88 119.964 108.636 119.372 108.508C119.188 108.468 119 108.444 118.808 108.436C118.616 108.42 118.448 108.412 118.304 108.412H113.444V115.756ZM132.305 124.36C131.041 124.36 129.945 124.08 129.017 123.52C128.097 122.96 127.381 122.172 126.869 121.156C126.357 120.14 126.101 118.948 126.101 117.58C126.101 116.164 126.353 114.94 126.857 113.908C127.361 112.876 128.069 112.08 128.981 111.52C129.901 110.96 130.985 110.68 132.233 110.68C133.513 110.68 134.605 110.976 135.509 111.568C136.413 112.152 137.097 112.992 137.561 114.088C138.025 115.184 138.237 116.492 138.197 118.012H136.397V117.388C136.365 115.708 136.001 114.44 135.305 113.584C134.617 112.728 133.609 112.3 132.281 112.3C130.889 112.3 129.821 112.752 129.077 113.656C128.341 114.56 127.973 115.848 127.973 117.52C127.973 119.152 128.341 120.42 129.077 121.324C129.821 122.22 130.873 122.668 132.233 122.668C133.161 122.668 133.969 122.456 134.657 122.032C135.353 121.6 135.901 120.98 136.301 120.172L137.945 120.808C137.433 121.936 136.677 122.812 135.677 123.436C134.685 124.052 133.561 124.36 132.305 124.36ZM127.349 118.012V116.536H137.249V118.012H127.349ZM144.333 124.36C143.357 124.36 142.537 124.184 141.873 123.832C141.217 123.48 140.725 123.012 140.397 122.428C140.069 121.844 139.905 121.208 139.905 120.52C139.905 119.816 140.045 119.216 140.325 118.72C140.613 118.216 141.001 117.804 141.489 117.484C141.985 117.164 142.557 116.92 143.205 116.752C143.861 116.592 144.585 116.452 145.377 116.332C146.177 116.204 146.957 116.096 147.717 116.008C148.485 115.912 149.157 115.82 149.733 115.732L149.109 116.116C149.133 114.836 148.885 113.888 148.365 113.272C147.845 112.656 146.941 112.348 145.653 112.348C144.765 112.348 144.013 112.548 143.397 112.948C142.789 113.348 142.361 113.98 142.113 114.844L140.397 114.34C140.693 113.18 141.289 112.28 142.185 111.64C143.081 111 144.245 110.68 145.677 110.68C146.861 110.68 147.865 110.904 148.689 111.352C149.521 111.792 150.109 112.432 150.453 113.272C150.613 113.648 150.717 114.068 150.765 114.532C150.813 114.996 150.837 115.468 150.837 115.948V124H149.265V120.748L149.721 120.94C149.281 122.052 148.597 122.9 147.669 123.484C146.741 124.068 145.629 124.36 144.333 124.36ZM144.537 122.836C145.361 122.836 146.081 122.688 146.697 122.392C147.313 122.096 147.809 121.692 148.185 121.18C148.561 120.66 148.805 120.076 148.917 119.428C149.013 119.012 149.065 118.556 149.073 118.06C149.081 117.556 149.085 117.18 149.085 116.932L149.757 117.28C149.157 117.36 148.505 117.44 147.801 117.52C147.105 117.6 146.417 117.692 145.737 117.796C145.065 117.9 144.457 118.024 143.913 118.168C143.545 118.272 143.189 118.42 142.845 118.612C142.501 118.796 142.217 119.044 141.993 119.356C141.777 119.668 141.669 120.056 141.669 120.52C141.669 120.896 141.761 121.26 141.945 121.612C142.137 121.964 142.441 122.256 142.857 122.488C143.281 122.72 143.841 122.836 144.537 122.836ZM158.989 124.36C157.781 124.36 156.749 124.06 155.893 123.46C155.037 122.852 154.381 122.032 153.925 121C153.469 119.968 153.241 118.804 153.241 117.508C153.241 116.22 153.465 115.06 153.913 114.028C154.369 112.996 155.021 112.18 155.869 111.58C156.717 110.98 157.733 110.68 158.917 110.68C160.133 110.68 161.157 110.976 161.989 111.568C162.821 112.16 163.449 112.972 163.873 114.004C164.305 115.028 164.521 116.196 164.521 117.508C164.521 118.796 164.309 119.96 163.885 121C163.461 122.032 162.837 122.852 162.013 123.46C161.189 124.06 160.181 124.36 158.989 124.36ZM159.169 122.716C160.089 122.716 160.849 122.492 161.449 122.044C162.049 121.596 162.497 120.98 162.793 120.196C163.089 119.404 163.237 118.508 163.237 117.508C163.237 116.492 163.089 115.596 162.793 114.82C162.497 114.036 162.049 113.424 161.449 112.984C160.857 112.544 160.109 112.324 159.205 112.324C158.277 112.324 157.509 112.552 156.901 113.008C156.293 113.464 155.841 114.084 155.545 114.868C155.257 115.652 155.113 116.532 155.113 117.508C155.113 118.492 155.261 119.38 155.557 120.172C155.861 120.956 156.313 121.576 156.913 122.032C157.513 122.488 158.265 122.716 159.169 122.716ZM163.237 124V114.244H163.045V106.72H164.821V124H163.237ZM170.036 129.76L172.544 122.956L172.58 124.972L166.904 111.04H168.776L173.432 122.692H172.664L176.96 111.04H178.76L171.8 129.76H170.036ZM192.705 124C191.977 124.152 191.257 124.212 190.545 124.18C189.841 124.148 189.209 123.996 188.649 123.724C188.097 123.452 187.677 123.028 187.389 122.452C187.157 121.972 187.029 121.488 187.005 121C186.989 120.504 186.981 119.94 186.981 119.308V107.44H188.733V119.236C188.733 119.78 188.737 120.236 188.745 120.604C188.761 120.964 188.845 121.284 188.997 121.564C189.285 122.1 189.741 122.42 190.365 122.524C190.997 122.628 191.777 122.604 192.705 122.452V124ZM184.209 112.552V111.04H192.705V112.552H184.209ZM200.201 124.36C198.913 124.36 197.813 124.068 196.901 123.484C195.989 122.9 195.289 122.092 194.801 121.06C194.313 120.028 194.069 118.844 194.069 117.508C194.069 116.148 194.317 114.956 194.813 113.932C195.309 112.908 196.013 112.112 196.925 111.544C197.845 110.968 198.937 110.68 200.201 110.68C201.497 110.68 202.601 110.972 203.513 111.556C204.433 112.132 205.133 112.936 205.613 113.968C206.101 114.992 206.345 116.172 206.345 117.508C206.345 118.868 206.101 120.064 205.613 121.096C205.125 122.12 204.421 122.92 203.501 123.496C202.581 124.072 201.481 124.36 200.201 124.36ZM200.201 122.668C201.641 122.668 202.713 122.192 203.417 121.24C204.121 120.28 204.473 119.036 204.473 117.508C204.473 115.94 204.117 114.692 203.405 113.764C202.701 112.836 201.633 112.372 200.201 112.372C199.233 112.372 198.433 112.592 197.801 113.032C197.177 113.464 196.709 114.068 196.397 114.844C196.093 115.612 195.941 116.5 195.941 117.508C195.941 119.068 196.301 120.32 197.021 121.264C197.741 122.2 198.801 122.668 200.201 122.668ZM218.945 130.12C218.281 130.12 217.625 130.02 216.977 129.82C216.337 129.628 215.745 129.32 215.201 128.896C214.657 128.48 214.201 127.936 213.833 127.264L215.429 126.376C215.789 127.096 216.293 127.612 216.941 127.924C217.597 128.244 218.265 128.404 218.945 128.404C219.881 128.404 220.637 128.228 221.213 127.876C221.797 127.532 222.221 127.02 222.485 126.34C222.749 125.66 222.877 124.812 222.869 123.796V120.34H223.073V111.04H224.645V123.82C224.645 124.188 224.633 124.54 224.609 124.876C224.593 125.22 224.557 125.556 224.501 125.884C224.349 126.852 224.033 127.648 223.553 128.272C223.081 128.896 222.457 129.36 221.681 129.664C220.913 129.968 220.001 130.12 218.945 130.12ZM218.825 124.36C217.617 124.36 216.585 124.06 215.729 123.46C214.873 122.852 214.217 122.032 213.761 121C213.305 119.968 213.077 118.804 213.077 117.508C213.077 116.22 213.301 115.06 213.749 114.028C214.205 112.996 214.857 112.18 215.705 111.58C216.553 110.98 217.569 110.68 218.753 110.68C219.969 110.68 220.993 110.976 221.825 111.568C222.657 112.16 223.285 112.972 223.709 114.004C224.141 115.028 224.357 116.196 224.357 117.508C224.357 118.796 224.145 119.96 223.721 121C223.297 122.032 222.673 122.852 221.849 123.46C221.025 124.06 220.017 124.36 218.825 124.36ZM219.005 122.716C219.925 122.716 220.685 122.492 221.285 122.044C221.885 121.596 222.333 120.98 222.629 120.196C222.925 119.404 223.073 118.508 223.073 117.508C223.073 116.492 222.925 115.596 222.629 114.82C222.333 114.036 221.885 113.424 221.285 112.984C220.693 112.544 219.945 112.324 219.041 112.324C218.113 112.324 217.345 112.552 216.737 113.008C216.129 113.464 215.677 114.084 215.381 114.868C215.093 115.652 214.949 116.532 214.949 117.508C214.949 118.492 215.097 119.38 215.393 120.172C215.697 120.956 216.149 121.576 216.749 122.032C217.349 122.488 218.101 122.716 219.005 122.716ZM233.484 124.36C232.22 124.36 231.124 124.08 230.196 123.52C229.276 122.96 228.56 122.172 228.048 121.156C227.536 120.14 227.28 118.948 227.28 117.58C227.28 116.164 227.532 114.94 228.036 113.908C228.54 112.876 229.248 112.08 230.16 111.52C231.08 110.96 232.164 110.68 233.412 110.68C234.692 110.68 235.784 110.976 236.688 111.568C237.592 112.152 238.276 112.992 238.74 114.088C239.204 115.184 239.416 116.492 239.376 118.012H237.576V117.388C237.544 115.708 237.18 114.44 236.484 113.584C235.796 112.728 234.788 112.3 233.46 112.3C232.068 112.3 231 112.752 230.256 113.656C229.52 114.56 229.152 115.848 229.152 117.52C229.152 119.152 229.52 120.42 230.256 121.324C231 122.22 232.052 122.668 233.412 122.668C234.34 122.668 235.148 122.456 235.836 122.032C236.532 121.6 237.08 120.98 237.48 120.172L239.124 120.808C238.612 121.936 237.856 122.812 236.856 123.436C235.864 124.052 234.74 124.36 233.484 124.36ZM228.528 118.012V116.536H238.428V118.012H228.528ZM249.095 124C248.367 124.152 247.647 124.212 246.935 124.18C246.231 124.148 245.599 123.996 245.039 123.724C244.487 123.452 244.067 123.028 243.779 122.452C243.547 121.972 243.419 121.488 243.395 121C243.379 120.504 243.371 119.94 243.371 119.308V107.44H245.123V119.236C245.123 119.78 245.127 120.236 245.135 120.604C245.151 120.964 245.235 121.284 245.387 121.564C245.675 122.1 246.131 122.42 246.755 122.524C247.387 122.628 248.167 122.604 249.095 122.452V124ZM240.599 112.552V111.04H249.095V112.552H240.599ZM261.289 124.348C259.769 124.348 258.517 124.02 257.533 123.364C256.557 122.708 255.957 121.796 255.733 120.628L257.533 120.328C257.725 121.064 258.161 121.652 258.841 122.092C259.529 122.524 260.377 122.74 261.385 122.74C262.369 122.74 263.145 122.536 263.713 122.128C264.281 121.712 264.565 121.148 264.565 120.436C264.565 120.036 264.473 119.712 264.289 119.464C264.113 119.208 263.749 118.972 263.197 118.756C262.645 118.54 261.821 118.284 260.725 117.988C259.549 117.668 258.629 117.348 257.965 117.028C257.301 116.708 256.829 116.34 256.549 115.924C256.269 115.5 256.129 114.984 256.129 114.376C256.129 113.64 256.337 112.996 256.753 112.444C257.169 111.884 257.745 111.452 258.481 111.148C259.217 110.836 260.073 110.68 261.049 110.68C262.025 110.68 262.897 110.84 263.665 111.16C264.441 111.472 265.065 111.912 265.537 112.48C266.009 113.048 266.289 113.708 266.377 114.46L264.577 114.784C264.457 114.024 264.077 113.424 263.437 112.984C262.805 112.536 262.001 112.304 261.025 112.288C260.105 112.264 259.357 112.44 258.781 112.816C258.205 113.184 257.917 113.676 257.917 114.292C257.917 114.636 258.021 114.932 258.229 115.18C258.437 115.42 258.813 115.648 259.357 115.864C259.909 116.08 260.693 116.316 261.709 116.572C262.901 116.876 263.837 117.196 264.517 117.532C265.197 117.868 265.681 118.264 265.969 118.72C266.257 119.176 266.401 119.74 266.401 120.412C266.401 121.636 265.945 122.6 265.033 123.304C264.129 124 262.881 124.348 261.289 124.348ZM276.119 124C275.391 124.152 274.671 124.212 273.959 124.18C273.255 124.148 272.623 123.996 272.063 123.724C271.511 123.452 271.091 123.028 270.803 122.452C270.571 121.972 270.443 121.488 270.419 121C270.403 120.504 270.395 119.94 270.395 119.308V107.44H272.147V119.236C272.147 119.78 272.151 120.236 272.159 120.604C272.175 120.964 272.259 121.284 272.411 121.564C272.699 122.1 273.155 122.42 273.779 122.524C274.411 122.628 275.191 122.604 276.119 122.452V124ZM267.623 112.552V111.04H276.119V112.552H267.623ZM282.38 124.36C281.404 124.36 280.584 124.184 279.92 123.832C279.264 123.48 278.772 123.012 278.444 122.428C278.116 121.844 277.952 121.208 277.952 120.52C277.952 119.816 278.092 119.216 278.372 118.72C278.66 118.216 279.048 117.804 279.536 117.484C280.032 117.164 280.604 116.92 281.252 116.752C281.908 116.592 282.632 116.452 283.424 116.332C284.224 116.204 285.004 116.096 285.764 116.008C286.532 115.912 287.204 115.82 287.78 115.732L287.156 116.116C287.18 114.836 286.932 113.888 286.412 113.272C285.892 112.656 284.988 112.348 283.7 112.348C282.812 112.348 282.06 112.548 281.444 112.948C280.836 113.348 280.408 113.98 280.16 114.844L278.444 114.34C278.74 113.18 279.336 112.28 280.232 111.64C281.128 111 282.292 110.68 283.724 110.68C284.908 110.68 285.912 110.904 286.736 111.352C287.568 111.792 288.156 112.432 288.5 113.272C288.66 113.648 288.764 114.068 288.812 114.532C288.86 114.996 288.884 115.468 288.884 115.948V124H287.312V120.748L287.768 120.94C287.328 122.052 286.644 122.9 285.716 123.484C284.788 124.068 283.676 124.36 282.38 124.36ZM282.584 122.836C283.408 122.836 284.128 122.688 284.744 122.392C285.36 122.096 285.856 121.692 286.232 121.18C286.608 120.66 286.852 120.076 286.964 119.428C287.06 119.012 287.112 118.556 287.12 118.06C287.128 117.556 287.132 117.18 287.132 116.932L287.804 117.28C287.204 117.36 286.552 117.44 285.848 117.52C285.152 117.6 284.464 117.692 283.784 117.796C283.112 117.9 282.504 118.024 281.96 118.168C281.592 118.272 281.236 118.42 280.892 118.612C280.548 118.796 280.264 119.044 280.04 119.356C279.824 119.668 279.716 120.056 279.716 120.52C279.716 120.896 279.808 121.26 279.992 121.612C280.184 121.964 280.488 122.256 280.904 122.488C281.328 122.72 281.888 122.836 282.584 122.836ZM292.008 124V111.04H293.592V114.16L293.28 113.752C293.424 113.368 293.612 113.016 293.844 112.696C294.076 112.368 294.328 112.1 294.6 111.892C294.936 111.596 295.328 111.372 295.776 111.22C296.224 111.06 296.676 110.968 297.132 110.944C297.588 110.912 298.004 110.944 298.38 111.04V112.696C297.908 112.576 297.392 112.548 296.832 112.612C296.272 112.676 295.756 112.9 295.284 113.284C294.852 113.62 294.528 114.024 294.312 114.496C294.096 114.96 293.952 115.456 293.88 115.984C293.808 116.504 293.772 117.02 293.772 117.532V124H292.008ZM307.713 124C306.985 124.152 306.265 124.212 305.553 124.18C304.849 124.148 304.217 123.996 303.657 123.724C303.105 123.452 302.685 123.028 302.397 122.452C302.165 121.972 302.037 121.488 302.013 121C301.997 120.504 301.989 119.94 301.989 119.308V107.44H303.741V119.236C303.741 119.78 303.745 120.236 303.753 120.604C303.769 120.964 303.853 121.284 304.005 121.564C304.293 122.1 304.749 122.42 305.373 122.524C306.005 122.628 306.785 122.604 307.713 122.452V124ZM299.217 112.552V111.04H307.713V112.552H299.217ZM315.281 124.36C314.017 124.36 312.921 124.08 311.993 123.52C311.073 122.96 310.357 122.172 309.845 121.156C309.333 120.14 309.077 118.948 309.077 117.58C309.077 116.164 309.329 114.94 309.833 113.908C310.337 112.876 311.045 112.08 311.957 111.52C312.877 110.96 313.961 110.68 315.209 110.68C316.489 110.68 317.581 110.976 318.485 111.568C319.389 112.152 320.073 112.992 320.537 114.088C321.001 115.184 321.213 116.492 321.173 118.012H319.373V117.388C319.341 115.708 318.977 114.44 318.281 113.584C317.593 112.728 316.585 112.3 315.257 112.3C313.865 112.3 312.797 112.752 312.053 113.656C311.317 114.56 310.949 115.848 310.949 117.52C310.949 119.152 311.317 120.42 312.053 121.324C312.797 122.22 313.849 122.668 315.209 122.668C316.137 122.668 316.945 122.456 317.633 122.032C318.329 121.6 318.877 120.98 319.277 120.172L320.921 120.808C320.409 121.936 319.653 122.812 318.653 123.436C317.661 124.052 316.537 124.36 315.281 124.36ZM310.325 118.012V116.536H320.225V118.012H310.325ZM328.864 124.36C327.656 124.36 326.624 124.06 325.768 123.46C324.912 122.852 324.256 122.032 323.8 121C323.344 119.968 323.116 118.804 323.116 117.508C323.116 116.22 323.34 115.06 323.788 114.028C324.244 112.996 324.896 112.18 325.744 111.58C326.592 110.98 327.608 110.68 328.792 110.68C330.008 110.68 331.032 110.976 331.864 111.568C332.696 112.16 333.324 112.972 333.748 114.004C334.18 115.028 334.396 116.196 334.396 117.508C334.396 118.796 334.184 119.96 333.76 121C333.336 122.032 332.712 122.852 331.888 123.46C331.064 124.06 330.056 124.36 328.864 124.36ZM329.044 122.716C329.964 122.716 330.724 122.492 331.324 122.044C331.924 121.596 332.372 120.98 332.668 120.196C332.964 119.404 333.112 118.508 333.112 117.508C333.112 116.492 332.964 115.596 332.668 114.82C332.372 114.036 331.924 113.424 331.324 112.984C330.732 112.544 329.984 112.324 329.08 112.324C328.152 112.324 327.384 112.552 326.776 113.008C326.168 113.464 325.716 114.084 325.42 114.868C325.132 115.652 324.988 116.532 324.988 117.508C324.988 118.492 325.136 119.38 325.432 120.172C325.736 120.956 326.188 121.576 326.788 122.032C327.388 122.488 328.14 122.716 329.044 122.716ZM333.112 124V114.244H332.92V106.72H334.696V124H333.112ZM341.447 119.284C341.447 118.66 341.475 118.112 341.531 117.64C341.595 117.16 341.755 116.68 342.011 116.2C342.251 115.744 342.547 115.368 342.899 115.072C343.251 114.768 343.619 114.484 344.003 114.22C344.387 113.948 344.751 113.628 345.095 113.26C345.407 112.9 345.615 112.536 345.719 112.168C345.823 111.8 345.875 111.412 345.875 111.004C345.875 110.596 345.823 110.232 345.719 109.912C345.623 109.592 345.471 109.316 345.263 109.084C344.943 108.692 344.551 108.424 344.087 108.28C343.623 108.136 343.139 108.064 342.635 108.064C342.139 108.064 341.675 108.136 341.243 108.28C340.819 108.416 340.467 108.628 340.187 108.916C339.915 109.172 339.715 109.48 339.587 109.84C339.467 110.2 339.407 110.58 339.407 110.98H337.583C337.615 110.348 337.751 109.732 337.991 109.132C338.239 108.524 338.599 108.016 339.071 107.608C339.543 107.176 340.091 106.864 340.715 106.672C341.347 106.472 341.983 106.372 342.623 106.372C343.407 106.372 344.151 106.492 344.855 106.732C345.559 106.964 346.151 107.356 346.631 107.908C347.015 108.316 347.295 108.784 347.471 109.312C347.655 109.832 347.747 110.388 347.747 110.98C347.747 111.644 347.623 112.268 347.375 112.852C347.127 113.436 346.779 113.956 346.331 114.412C346.059 114.708 345.751 114.984 345.407 115.24C345.063 115.488 344.731 115.748 344.411 116.02C344.099 116.284 343.859 116.572 343.691 116.884C343.483 117.268 343.367 117.632 343.343 117.976C343.327 118.32 343.319 118.756 343.319 119.284H341.447ZM341.459 124V121.648H343.319V124H341.459Z" fill="white"/>
<path d="M119.48 191V167.28H110.4V162.2H134V167.28H124.92V191H119.48ZM140.402 191.6C138.855 191.6 137.542 191.307 136.462 190.72C135.395 190.12 134.582 189.327 134.022 188.34C133.475 187.34 133.202 186.24 133.202 185.04C133.202 184.04 133.355 183.127 133.662 182.3C133.968 181.473 134.462 180.747 135.142 180.12C135.835 179.48 136.762 178.947 137.922 178.52C138.722 178.227 139.675 177.967 140.782 177.74C141.888 177.513 143.142 177.3 144.542 177.1C145.942 176.887 147.482 176.653 149.162 176.4L147.202 177.48C147.202 176.2 146.895 175.26 146.282 174.66C145.668 174.06 144.642 173.76 143.202 173.76C142.402 173.76 141.568 173.953 140.702 174.34C139.835 174.727 139.228 175.413 138.882 176.4L133.962 174.84C134.508 173.053 135.535 171.6 137.042 170.48C138.548 169.36 140.602 168.8 143.202 168.8C145.108 168.8 146.802 169.093 148.282 169.68C149.762 170.267 150.882 171.28 151.642 172.72C152.068 173.52 152.322 174.32 152.402 175.12C152.482 175.92 152.522 176.813 152.522 177.8V191H147.762V186.56L148.442 187.48C147.388 188.933 146.248 189.987 145.022 190.64C143.808 191.28 142.268 191.6 140.402 191.6ZM141.562 187.32C142.562 187.32 143.402 187.147 144.082 186.8C144.775 186.44 145.322 186.033 145.722 185.58C146.135 185.127 146.415 184.747 146.562 184.44C146.842 183.853 147.002 183.173 147.042 182.4C147.095 181.613 147.122 180.96 147.122 180.44L148.722 180.84C147.108 181.107 145.802 181.333 144.802 181.52C143.802 181.693 142.995 181.853 142.382 182C141.768 182.147 141.228 182.307 140.762 182.48C140.228 182.693 139.795 182.927 139.462 183.18C139.142 183.42 138.902 183.687 138.742 183.98C138.595 184.273 138.522 184.6 138.522 184.96C138.522 185.453 138.642 185.88 138.882 186.24C139.135 186.587 139.488 186.853 139.942 187.04C140.395 187.227 140.935 187.32 141.562 187.32ZM157.682 191L157.722 162.2H163.242V179.8L170.562 169.4H177.282L169.482 180.2L177.802 191H170.722L163.242 180.6V191H157.682ZM189.442 191.6C187.228 191.6 185.275 191.127 183.582 190.18C181.902 189.22 180.582 187.907 179.622 186.24C178.675 184.56 178.202 182.64 178.202 180.48C178.202 178.12 178.668 176.067 179.602 174.32C180.535 172.573 181.822 171.22 183.462 170.26C185.102 169.287 186.988 168.8 189.122 168.8C191.388 168.8 193.315 169.333 194.902 170.4C196.488 171.467 197.662 172.967 198.422 174.9C199.182 176.833 199.448 179.107 199.222 181.72H193.842V179.72C193.842 177.52 193.488 175.94 192.782 174.98C192.088 174.007 190.948 173.52 189.362 173.52C187.508 173.52 186.142 174.087 185.262 175.22C184.395 176.34 183.962 178 183.962 180.2C183.962 182.213 184.395 183.773 185.262 184.88C186.142 185.973 187.428 186.52 189.122 186.52C190.188 186.52 191.102 186.287 191.862 185.82C192.622 185.353 193.202 184.68 193.602 183.8L199.042 185.36C198.228 187.333 196.942 188.867 195.182 189.96C193.435 191.053 191.522 191.6 189.442 191.6ZM182.282 181.72V177.68H196.602V181.72H182.282ZM218.785 191V179.28L208.945 162.2H215.305L221.545 173.04L227.785 162.2H234.145L224.305 179.28V191H218.785ZM243.458 191.6C241.284 191.6 239.378 191.113 237.738 190.14C236.098 189.167 234.818 187.827 233.898 186.12C232.991 184.4 232.538 182.427 232.538 180.2C232.538 177.947 233.004 175.967 233.938 174.26C234.871 172.54 236.158 171.2 237.798 170.24C239.438 169.28 241.324 168.8 243.458 168.8C245.631 168.8 247.538 169.287 249.178 170.26C250.831 171.233 252.118 172.58 253.038 174.3C253.958 176.007 254.418 177.973 254.418 180.2C254.418 182.44 253.951 184.42 253.018 186.14C252.098 187.847 250.811 189.187 249.158 190.16C247.518 191.12 245.618 191.6 243.458 191.6ZM243.458 186.52C245.204 186.52 246.504 185.933 247.358 184.76C248.224 183.573 248.658 182.053 248.658 180.2C248.658 178.28 248.218 176.747 247.338 175.6C246.471 174.453 245.178 173.88 243.458 173.88C242.271 173.88 241.298 174.147 240.538 174.68C239.778 175.213 239.211 175.953 238.838 176.9C238.478 177.847 238.298 178.947 238.298 180.2C238.298 182.133 238.731 183.673 239.598 184.82C240.478 185.953 241.764 186.52 243.458 186.52ZM266.856 191.64C265.162 191.64 263.782 191.353 262.716 190.78C261.649 190.207 260.816 189.48 260.216 188.6C259.629 187.72 259.209 186.807 258.956 185.86C258.702 184.9 258.549 184.027 258.496 183.24C258.442 182.453 258.416 181.88 258.416 181.52V169.4H263.936V179.6C263.936 180.093 263.962 180.727 264.016 181.5C264.069 182.26 264.236 183.027 264.516 183.8C264.796 184.573 265.249 185.22 265.876 185.74C266.516 186.26 267.416 186.52 268.576 186.52C269.042 186.52 269.542 186.447 270.076 186.3C270.609 186.153 271.109 185.873 271.576 185.46C272.042 185.033 272.422 184.413 272.716 183.6C273.022 182.773 273.176 181.693 273.176 180.36L276.296 181.84C276.296 183.547 275.949 185.147 275.256 186.64C274.562 188.133 273.516 189.34 272.116 190.26C270.729 191.18 268.976 191.64 266.856 191.64ZM273.856 191V183.84H273.176V169.4H278.656V191H273.856ZM284.245 191V169.4H289.045V174.68L288.525 174C288.805 173.253 289.179 172.573 289.645 171.96C290.112 171.347 290.685 170.84 291.365 170.44C291.885 170.12 292.452 169.873 293.065 169.7C293.679 169.513 294.312 169.4 294.965 169.36C295.619 169.307 296.272 169.32 296.925 169.4V174.48C296.325 174.293 295.625 174.233 294.825 174.3C294.039 174.353 293.325 174.533 292.685 174.84C292.045 175.133 291.505 175.527 291.065 176.02C290.625 176.5 290.292 177.073 290.065 177.74C289.839 178.393 289.725 179.133 289.725 179.96V191H284.245ZM435.994 191C434.501 191.28 433.034 191.4 431.594 191.36C430.168 191.333 428.888 191.087 427.754 190.62C426.634 190.14 425.781 189.373 425.194 188.32C424.661 187.333 424.381 186.333 424.354 185.32C424.328 184.293 424.314 183.133 424.314 181.84V163.4H429.754V181.52C429.754 182.36 429.761 183.12 429.774 183.8C429.801 184.467 429.941 185 430.194 185.4C430.674 186.16 431.441 186.573 432.494 186.64C433.548 186.707 434.714 186.653 435.994 186.48V191ZM420.634 173.6V169.4H435.994V173.6H420.634ZM449.356 191.6C447.183 191.6 445.276 191.113 443.636 190.14C441.996 189.167 440.716 187.827 439.796 186.12C438.889 184.4 438.436 182.427 438.436 180.2C438.436 177.947 438.903 175.967 439.836 174.26C440.769 172.54 442.056 171.2 443.696 170.24C445.336 169.28 447.223 168.8 449.356 168.8C451.529 168.8 453.436 169.287 455.076 170.26C456.729 171.233 458.016 172.58 458.936 174.3C459.856 176.007 460.316 177.973 460.316 180.2C460.316 182.44 459.849 184.42 458.916 186.14C457.996 187.847 456.709 189.187 455.056 190.16C453.416 191.12 451.516 191.6 449.356 191.6ZM449.356 186.52C451.103 186.52 452.403 185.933 453.256 184.76C454.123 183.573 454.556 182.053 454.556 180.2C454.556 178.28 454.116 176.747 453.236 175.6C452.369 174.453 451.076 173.88 449.356 173.88C448.169 173.88 447.196 174.147 446.436 174.68C445.676 175.213 445.109 175.953 444.736 176.9C444.376 177.847 444.196 178.947 444.196 180.2C444.196 182.133 444.629 183.673 445.496 184.82C446.376 185.953 447.663 186.52 449.356 186.52ZM485.682 191C484.189 191.28 482.722 191.4 481.282 191.36C479.855 191.333 478.575 191.087 477.442 190.62C476.322 190.14 475.469 189.373 474.882 188.32C474.349 187.333 474.069 186.333 474.042 185.32C474.015 184.293 474.002 183.133 474.002 181.84V163.4H479.442V181.52C479.442 182.36 479.449 183.12 479.462 183.8C479.489 184.467 479.629 185 479.882 185.4C480.362 186.16 481.129 186.573 482.182 186.64C483.235 186.707 484.402 186.653 485.682 186.48V191ZM470.322 173.6V169.4H485.682V173.6H470.322ZM505.215 191V180.8C505.215 180.307 505.189 179.68 505.135 178.92C505.082 178.147 504.915 177.373 504.635 176.6C504.355 175.827 503.895 175.18 503.255 174.66C502.629 174.14 501.735 173.88 500.575 173.88C500.109 173.88 499.609 173.953 499.075 174.1C498.542 174.247 498.042 174.533 497.575 174.96C497.109 175.373 496.722 175.987 496.415 176.8C496.122 177.613 495.975 178.693 495.975 180.04L492.855 178.56C492.855 176.853 493.202 175.253 493.895 173.76C494.589 172.267 495.629 171.06 497.015 170.14C498.415 169.22 500.175 168.76 502.295 168.76C503.989 168.76 505.369 169.047 506.435 169.62C507.502 170.193 508.329 170.92 508.915 171.8C509.515 172.68 509.942 173.6 510.195 174.56C510.449 175.507 510.602 176.373 510.655 177.16C510.709 177.947 510.735 178.52 510.735 178.88V191H505.215ZM490.455 191V162.2H495.295V177H495.975V191H490.455ZM525.965 191.6C523.752 191.6 521.798 191.127 520.105 190.18C518.425 189.22 517.105 187.907 516.145 186.24C515.198 184.56 514.725 182.64 514.725 180.48C514.725 178.12 515.192 176.067 516.125 174.32C517.058 172.573 518.345 171.22 519.985 170.26C521.625 169.287 523.512 168.8 525.645 168.8C527.912 168.8 529.838 169.333 531.425 170.4C533.012 171.467 534.185 172.967 534.945 174.9C535.705 176.833 535.972 179.107 535.745 181.72H530.365V179.72C530.365 177.52 530.012 175.94 529.305 174.98C528.612 174.007 527.472 173.52 525.885 173.52C524.032 173.52 522.665 174.087 521.785 175.22C520.918 176.34 520.485 178 520.485 180.2C520.485 182.213 520.918 183.773 521.785 184.88C522.665 185.973 523.952 186.52 525.645 186.52C526.712 186.52 527.625 186.287 528.385 185.82C529.145 185.353 529.725 184.68 530.125 183.8L535.565 185.36C534.752 187.333 533.465 188.867 531.705 189.96C529.958 191.053 528.045 191.6 525.965 191.6ZM518.805 181.72V177.68H533.125V181.72H518.805ZM112.8 243V214.2H118.32L130.84 233.4V214.2H136.36V243H130.84L118.32 223.8V243H112.8ZM151.981 243.6C149.767 243.6 147.814 243.127 146.121 242.18C144.441 241.22 143.121 239.907 142.161 238.24C141.214 236.56 140.741 234.64 140.741 232.48C140.741 230.12 141.207 228.067 142.141 226.32C143.074 224.573 144.361 223.22 146.001 222.26C147.641 221.287 149.527 220.8 151.661 220.8C153.927 220.8 155.854 221.333 157.441 222.4C159.027 223.467 160.201 224.967 160.961 226.9C161.721 228.833 161.987 231.107 161.761 233.72H156.381V231.72C156.381 229.52 156.027 227.94 155.321 226.98C154.627 226.007 153.487 225.52 151.901 225.52C150.047 225.52 148.681 226.087 147.801 227.22C146.934 228.34 146.501 230 146.501 232.2C146.501 234.213 146.934 235.773 147.801 236.88C148.681 237.973 149.967 238.52 151.661 238.52C152.727 238.52 153.641 238.287 154.401 237.82C155.161 237.353 155.741 236.68 156.141 235.8L161.581 237.36C160.767 239.333 159.481 240.867 157.721 241.96C155.974 243.053 154.061 243.6 151.981 243.6ZM144.821 233.72V229.68H159.141V233.72H144.821ZM163.095 243L170.815 232.08L163.255 221.4H169.655L173.975 227.8L178.215 221.4H184.615L177.055 232.08L184.815 243H178.415L173.975 236.36L169.495 243H163.095ZM200.994 243C199.501 243.28 198.034 243.4 196.594 243.36C195.168 243.333 193.888 243.087 192.754 242.62C191.634 242.14 190.781 241.373 190.194 240.32C189.661 239.333 189.381 238.333 189.354 237.32C189.328 236.293 189.314 235.133 189.314 233.84V215.4H194.754V233.52C194.754 234.36 194.761 235.12 194.774 235.8C194.801 236.467 194.941 237 195.194 237.4C195.674 238.16 196.441 238.573 197.494 238.64C198.548 238.707 199.714 238.653 200.994 238.48V243ZM185.634 225.6V221.4H200.994V225.6H185.634ZM214.216 243V214.2H219.656V237.92H232.056V243H214.216ZM245.496 243.6C243.283 243.6 241.33 243.127 239.636 242.18C237.956 241.22 236.636 239.907 235.676 238.24C234.73 236.56 234.256 234.64 234.256 232.48C234.256 230.12 234.723 228.067 235.656 226.32C236.59 224.573 237.876 223.22 239.516 222.26C241.156 221.287 243.043 220.8 245.176 220.8C247.443 220.8 249.37 221.333 250.956 222.4C252.543 223.467 253.716 224.967 254.476 226.9C255.236 228.833 255.503 231.107 255.276 233.72H249.896V231.72C249.896 229.52 249.543 227.94 248.836 226.98C248.143 226.007 247.003 225.52 245.416 225.52C243.563 225.52 242.196 226.087 241.316 227.22C240.45 228.34 240.016 230 240.016 232.2C240.016 234.213 240.45 235.773 241.316 236.88C242.196 237.973 243.483 238.52 245.176 238.52C246.243 238.52 247.156 238.287 247.916 237.82C248.676 237.353 249.256 236.68 249.656 235.8L255.096 237.36C254.283 239.333 252.996 240.867 251.236 241.96C249.49 243.053 247.576 243.6 245.496 243.6ZM238.336 233.72V229.68H252.656V233.72H238.336ZM264.851 243L257.011 221.4H262.451L267.571 236.36L272.691 221.4H278.131L270.291 243H264.851ZM291.004 243.6C288.791 243.6 286.837 243.127 285.144 242.18C283.464 241.22 282.144 239.907 281.184 238.24C280.237 236.56 279.764 234.64 279.764 232.48C279.764 230.12 280.231 228.067 281.164 226.32C282.097 224.573 283.384 223.22 285.024 222.26C286.664 221.287 288.551 220.8 290.684 220.8C292.951 220.8 294.877 221.333 296.464 222.4C298.051 223.467 299.224 224.967 299.984 226.9C300.744 228.833 301.011 231.107 300.784 233.72H295.404V231.72C295.404 229.52 295.051 227.94 294.344 226.98C293.651 226.007 292.511 225.52 290.924 225.52C289.071 225.52 287.704 226.087 286.824 227.22C285.957 228.34 285.524 230 285.524 232.2C285.524 234.213 285.957 235.773 286.824 236.88C287.704 237.973 288.991 238.52 290.684 238.52C291.751 238.52 292.664 238.287 293.424 237.82C294.184 237.353 294.764 236.68 295.164 235.8L300.604 237.36C299.791 239.333 298.504 240.867 296.744 241.96C294.997 243.053 293.084 243.6 291.004 243.6ZM283.844 233.72V229.68H298.164V233.72H283.844ZM305.7 243V213.6H311.14V243H305.7Z" fill="white"/>
<path d="M319.618 191.6C317.484 191.6 315.558 191.227 313.838 190.48C312.131 189.72 310.724 188.64 309.618 187.24C308.524 185.827 307.831 184.147 307.538 182.2L313.218 181.36C313.618 183.013 314.444 184.287 315.698 185.18C316.951 186.073 318.378 186.52 319.978 186.52C320.871 186.52 321.738 186.38 322.578 186.1C323.418 185.82 324.104 185.407 324.638 184.86C325.184 184.313 325.458 183.64 325.458 182.84C325.458 182.547 325.411 182.267 325.318 182C325.238 181.72 325.098 181.46 324.898 181.22C324.698 180.98 324.411 180.753 324.038 180.54C323.678 180.327 323.218 180.133 322.658 179.96L315.178 177.76C314.618 177.6 313.964 177.373 313.218 177.08C312.484 176.787 311.771 176.367 311.077 175.82C310.384 175.273 309.804 174.553 309.338 173.66C308.884 172.753 308.658 171.613 308.658 170.24C308.658 168.307 309.144 166.7 310.118 165.42C311.091 164.14 312.391 163.187 314.018 162.56C315.644 161.933 317.444 161.627 319.418 161.64C321.404 161.667 323.178 162.007 324.738 162.66C326.298 163.313 327.604 164.267 328.658 165.52C329.711 166.76 330.471 168.28 330.938 170.08L325.058 171.08C324.844 170.147 324.451 169.36 323.878 168.72C323.304 168.08 322.618 167.593 321.818 167.26C321.031 166.927 320.204 166.747 319.338 166.72C318.484 166.693 317.678 166.813 316.918 167.08C316.171 167.333 315.558 167.707 315.078 168.2C314.611 168.693 314.378 169.28 314.378 169.96C314.378 170.587 314.571 171.1 314.958 171.5C315.344 171.887 315.831 172.2 316.418 172.44C317.004 172.68 317.604 172.88 318.218 173.04L323.218 174.4C323.964 174.6 324.791 174.867 325.698 175.2C326.604 175.52 327.471 175.973 328.298 176.56C329.138 177.133 329.824 177.893 330.358 178.84C330.904 179.787 331.178 180.987 331.178 182.44C331.178 183.987 330.851 185.34 330.198 186.5C329.558 187.647 328.691 188.6 327.598 189.36C326.504 190.107 325.264 190.667 323.878 191.04C322.504 191.413 321.084 191.6 319.618 191.6ZM335.533 191L335.573 162.2H341.093V179.8L348.413 169.4H355.133L347.333 180.2L355.653 191H348.573L341.093 180.6V191H335.533ZM358.044 166.4V161.6H363.484V166.4H358.044ZM358.044 191V169.4H363.484V191H358.044ZM369.88 191V161.6H375.32V191H369.88ZM381.716 191V161.6H387.156V191H381.716ZM401.592 191.6C398.872 191.6 396.672 190.987 394.992 189.76C393.325 188.52 392.312 186.773 391.952 184.52L397.512 183.68C397.738 184.693 398.238 185.487 399.012 186.06C399.798 186.633 400.792 186.92 401.992 186.92C402.978 186.92 403.738 186.733 404.272 186.36C404.805 185.973 405.072 185.44 405.072 184.76C405.072 184.333 404.965 183.993 404.752 183.74C404.538 183.473 404.058 183.213 403.312 182.96C402.578 182.707 401.432 182.373 399.872 181.96C398.112 181.507 396.705 181 395.652 180.44C394.598 179.88 393.838 179.213 393.372 178.44C392.905 177.653 392.672 176.707 392.672 175.6C392.672 174.213 393.025 173.013 393.732 172C394.438 170.973 395.432 170.187 396.712 169.64C398.005 169.08 399.525 168.8 401.272 168.8C402.965 168.8 404.465 169.06 405.772 169.58C407.078 170.1 408.132 170.84 408.932 171.8C409.745 172.76 410.245 173.893 410.432 175.2L404.872 176.2C404.778 175.4 404.432 174.767 403.832 174.3C403.232 173.833 402.418 173.56 401.392 173.48C400.392 173.413 399.585 173.547 398.972 173.88C398.372 174.213 398.072 174.693 398.072 175.32C398.072 175.693 398.198 176.007 398.452 176.26C398.718 176.513 399.258 176.773 400.072 177.04C400.898 177.307 402.152 177.653 403.832 178.08C405.472 178.507 406.785 179.007 407.772 179.58C408.772 180.14 409.498 180.82 409.952 181.62C410.405 182.407 410.632 183.36 410.632 184.48C410.632 186.693 409.832 188.433 408.232 189.7C406.632 190.967 404.418 191.6 401.592 191.6Z" fill="#6366F1"/>
<defs>
<linearGradient id="paint0_linear_20005153_6355" x1="916.509" y1="158.697" x2="1040.85" y2="158.697" gradientUnits="userSpaceOnUse">
<stop stop-color="#6366F1"/>
<stop offset="0.5" stop-color="#8B5CF6"/>
<stop offset="1" stop-color="#D946EF"/>
</linearGradient>
</defs>
</svg>
