<svg width="1296" height="442" viewBox="0 0 1296 442" fill="none" xmlns="http://www.w3.org/2000/svg">
<rect width="1296" height="442" rx="8" fill="#F3F6FF"/>
<path d="M837.747 345.51C837.747 345.51 846.719 344.237 846.973 346.311C847.228 348.384 840.871 351.658 840.871 351.658C840.871 351.658 840.362 349.003 839.454 347.693C838.546 346.383 837.747 345.51 837.747 345.51Z" fill="white"/>
<path d="M808.262 366.393C816.253 364.683 838.121 359.481 833.289 344.675C827.986 328.414 808.734 328.887 799.18 331.47C789.663 334.053 772.954 345.621 778.039 358.535C783.524 372.431 800.67 367.993 808.262 366.393Z" fill="white"/>
<path d="M794.603 368.868C787.774 368.868 780.727 366.795 777.531 358.682C776.005 354.826 776.259 350.825 778.257 346.787C782.144 339.075 791.843 332.854 799.035 330.89C808.661 328.307 828.349 327.798 833.798 344.459C834.96 348.06 834.706 351.37 832.999 354.317C828.204 362.684 813.274 365.849 808.371 366.904C808.007 366.976 807.644 367.049 807.281 367.122C804.048 367.85 799.362 368.868 794.603 368.868ZM809.715 330.635C805.792 330.635 802.123 331.217 799.326 331.981C793.368 333.582 783.197 339.402 779.238 347.296C777.349 351.043 777.131 354.717 778.548 358.282C783.633 371.16 798.89 367.85 807.063 366.067C807.462 365.994 807.826 365.921 808.153 365.849C820.975 363.12 829.039 359.083 832.054 353.808C833.58 351.152 833.834 348.133 832.745 344.822C829.148 333.727 818.796 330.635 809.715 330.635Z" fill="#0B0F19"/>
<path d="M822.682 364.465C828.821 364.465 833.761 359.481 833.761 353.37C833.761 347.258 828.785 342.274 822.682 342.274C816.58 342.274 811.603 347.258 811.603 353.37C811.603 359.481 816.543 364.465 822.682 364.465Z" fill="white"/>
<path d="M822.681 365.011C816.252 365.011 811.057 359.773 811.057 353.371C811.057 346.968 816.288 341.73 822.681 341.73C829.074 341.73 834.305 346.968 834.305 353.371C834.305 359.773 829.111 365.011 822.681 365.011ZM822.681 342.785C816.869 342.785 812.147 347.514 812.147 353.334C812.147 359.155 816.869 363.884 822.681 363.884C828.493 363.884 833.215 359.155 833.215 353.334C833.215 347.514 828.493 342.785 822.681 342.785Z" fill="#0B0F19"/>
<path d="M813.13 347.698C813.13 347.698 811.64 339.658 813.13 339.113C814.619 338.567 818.724 342.969 818.724 342.969C818.724 342.969 816.799 343.66 815.6 344.788C814.401 345.952 813.13 347.698 813.13 347.698Z" fill="white"/>
<path d="M813.13 348.243C813.093 348.243 813.057 348.243 813.021 348.243C812.803 348.207 812.658 348.025 812.621 347.807C812.621 347.734 812.258 345.733 812.04 343.66C811.677 339.622 812.294 338.821 812.948 338.603C814.655 337.985 818.106 341.513 819.123 342.605C819.232 342.75 819.305 342.932 819.269 343.114C819.232 343.296 819.087 343.441 818.905 343.514C818.869 343.514 817.053 344.169 815.963 345.224C814.837 346.315 813.566 348.025 813.566 348.061C813.457 348.171 813.311 348.243 813.13 348.243ZM813.311 339.622C813.311 339.622 812.767 340.058 813.13 343.732C813.239 344.715 813.348 345.66 813.457 346.388C813.929 345.806 814.583 345.042 815.2 344.424C815.999 343.66 817.053 343.114 817.743 342.787C816.036 341.004 813.929 339.367 813.311 339.622Z" fill="#0B0F19"/>
<path d="M833.652 352.204C833.58 352.204 833.507 352.168 833.398 352.132C833.253 352.059 833.144 351.913 833.108 351.732C833.108 351.695 832.599 349.149 831.764 347.948C830.892 346.675 830.129 345.838 830.129 345.802C829.984 345.656 829.947 345.438 830.02 345.256C830.093 345.074 830.274 344.929 830.456 344.893C831.219 344.783 837.939 343.874 839.755 345.256C840.155 345.547 840.264 345.911 840.3 346.166C840.591 348.494 834.996 351.513 833.907 352.059C833.834 352.204 833.725 352.204 833.652 352.204ZM831.582 345.911C831.873 346.275 832.272 346.784 832.672 347.366C833.326 348.348 833.798 349.913 834.016 350.822C836.377 349.513 839.319 347.403 839.21 346.348C839.21 346.311 839.21 346.275 839.065 346.166C838.12 345.475 834.343 345.62 831.582 345.911Z" fill="#0B0F19"/>
<path d="M782.979 341.367C782.979 341.367 772.844 350.825 775.423 362.175C778.184 374.252 800.56 382.328 810.186 370.25C817.887 360.574 804.919 355.19 801.032 361.301C795.547 369.887 771.973 370.541 782.979 341.367Z" fill="#565973"/>
<path d="M796.819 376.763C795.075 376.763 793.259 376.545 791.407 376.145C783.124 374.253 776.332 368.578 774.879 362.321C773.789 357.556 774.77 352.354 777.748 347.297C779.964 343.478 782.507 341.113 782.58 341.04C782.761 340.858 783.052 340.858 783.27 341.004C783.488 341.149 783.56 341.404 783.488 341.659C779.02 353.482 779.855 361.994 785.776 364.977C790.462 367.341 797.8 365.413 800.56 361.121C801.832 359.156 804.084 358.101 806.663 358.283C809.351 358.502 811.712 360.066 812.657 362.249C813.71 364.686 812.984 367.669 810.622 370.652C807.426 374.617 802.486 376.763 796.819 376.763ZM781.563 343.732C778.838 347.043 774.116 354.136 775.969 362.03C777.313 367.887 783.778 373.235 791.661 375.054C799.071 376.727 805.828 374.799 809.751 369.888C812.439 366.505 812.257 364.031 811.639 362.576C810.84 360.757 808.842 359.447 806.554 359.266C804.411 359.084 802.486 359.957 801.469 361.594C798.381 366.396 790.535 368.469 785.304 365.85C782.362 364.358 780.473 361.63 779.819 357.883C779.129 354.1 779.71 349.334 781.563 343.732Z" fill="#0B0F19"/>
<path d="M804.63 354.572C804.412 354.572 804.195 354.426 804.122 354.208C804.013 353.917 804.158 353.626 804.449 353.517C808.699 351.952 815.419 353.007 815.71 353.044C816 353.08 816.218 353.371 816.145 353.662C816.109 353.953 815.818 354.171 815.528 354.099C815.455 354.099 808.808 353.044 804.812 354.499C804.739 354.572 804.703 354.572 804.63 354.572Z" fill="#0B0F19"/>
<path d="M836.014 362.724C835.869 362.724 835.687 362.651 835.578 362.542C834.779 361.56 830.493 359.086 828.894 358.213C828.64 358.067 828.531 357.74 828.676 357.485C828.822 357.231 829.149 357.122 829.403 357.267C830.02 357.595 835.324 360.541 836.414 361.851C836.595 362.069 836.559 362.433 836.341 362.615C836.268 362.687 836.159 362.724 836.014 362.724Z" fill="#0B0F19"/>
<path d="M805.501 357.959C805.283 357.959 805.101 357.85 804.992 357.631C804.847 357.377 804.992 357.049 805.246 356.904C809.424 354.903 815.345 355.012 815.599 355.012C815.889 355.012 816.144 355.267 816.144 355.558C816.144 355.849 815.889 356.067 815.599 356.103C815.526 356.103 809.642 355.994 805.719 357.886C805.646 357.922 805.573 357.959 805.501 357.959Z" fill="#0B0F19"/>
<path d="M834.596 368.357C834.378 368.357 834.16 368.211 834.087 367.957C833.143 364.756 827.731 360.39 827.658 360.318C827.44 360.136 827.404 359.772 827.585 359.554C827.767 359.335 828.13 359.299 828.348 359.481C828.566 359.663 834.087 364.137 835.141 367.629C835.214 367.92 835.068 368.211 834.778 368.321C834.705 368.357 834.632 368.357 834.596 368.357Z" fill="#0B0F19"/>
<path d="M836.402 238.856C836.112 238.856 835.857 238.601 835.857 238.31C835.857 238.019 836.112 237.765 836.402 237.765L1022.86 235.946C1023.15 235.946 1023.4 236.2 1023.4 236.491C1023.4 236.782 1023.15 237.037 1022.86 237.037L836.402 238.856Z" fill="#565973"/>
<path d="M968.589 339.04L1010.98 338.531L1007.57 351.336L968.625 351.445V339.04H968.589Z" fill="white"/>
<path d="M968.588 351.992C968.443 351.992 968.297 351.919 968.188 351.846C968.079 351.737 968.043 351.592 968.043 351.446V339.041C968.043 338.75 968.297 338.496 968.588 338.496L1010.98 337.986C1011.16 337.986 1011.31 338.059 1011.41 338.205C1011.52 338.35 1011.56 338.532 1011.52 338.677L1008.11 351.482C1008.04 351.737 1007.82 351.883 1007.6 351.883L968.588 351.992ZM969.133 339.587V350.9L1007.13 350.791L1010.25 339.078L969.133 339.587Z" fill="#0B0F19"/>
<path d="M867.895 181.926C867.895 181.926 854.927 200.115 857.87 214.811C860.812 229.508 877.667 239.221 903.712 238.311C901.496 260.356 905.492 339.66 905.492 339.66L968.624 339.041L1005.28 338.532V231.872L954.131 192.366C954.131 192.366 929.72 182.581 867.895 181.926Z" fill="#0B0F19"/>
<path d="M905.455 340.205C905.165 340.205 904.91 339.987 904.91 339.696C904.874 338.896 901.024 261.52 903.094 238.893C890.707 239.257 879.919 237.184 871.855 232.928C863.863 228.671 858.814 222.451 857.325 214.957C855.763 207.245 858.632 198.587 861.284 192.694C864.154 186.328 867.423 181.708 867.459 181.671C867.568 181.526 867.75 181.453 867.895 181.453C928.231 182.072 953.259 191.493 954.312 191.894C954.348 191.93 954.421 191.93 954.457 191.966L1005.6 231.472C1005.75 231.582 1005.82 231.727 1005.82 231.909V338.568C1005.82 338.859 1005.57 339.114 1005.28 339.114L968.624 339.623L905.455 340.205ZM903.675 237.766C903.821 237.766 903.966 237.839 904.075 237.948C904.184 238.057 904.22 238.202 904.22 238.384C902.15 259.192 905.637 332.202 905.964 339.114L968.551 338.496L1004.69 337.986V232.127L953.84 192.839C952.169 192.221 927.286 183.127 868.186 182.472C866.697 184.618 855.726 201.279 858.415 214.666C859.831 221.869 864.662 227.798 872.4 231.909C880.391 236.202 891.216 238.202 903.675 237.766Z" fill="#0B0F19"/>
<path d="M968.588 339.583C968.297 339.583 968.043 339.364 968.043 339.037L965.464 231.213L932.989 201.638C932.771 201.42 932.735 201.093 932.953 200.874C933.171 200.656 933.498 200.62 933.716 200.838L966.336 230.595C966.445 230.704 966.517 230.85 966.517 230.995L969.096 339.073C969.133 339.328 968.915 339.583 968.588 339.583Z" fill="#0B0F19"/>
<path d="M900.407 339.696L977.162 339.041L974.219 351.41L904.33 351.664L900.407 339.696Z" fill="white"/>
<path d="M904.294 352.209C904.076 352.209 903.858 352.064 903.786 351.845L899.863 339.877C899.826 339.695 899.826 339.513 899.935 339.404C900.044 339.295 900.189 339.186 900.371 339.186L977.125 338.531C977.307 338.531 977.452 338.604 977.561 338.749C977.67 338.895 977.707 339.04 977.67 339.222L974.728 351.591C974.655 351.845 974.437 352.027 974.183 352.027L904.294 352.209ZM901.134 340.241L904.694 351.118L973.784 350.863L976.472 339.586L901.134 340.241Z" fill="#0B0F19"/>
<path d="M1001.57 351.444V359.92L1023.91 375.781L968.589 376.254V351.444H1001.57Z" fill="white"/>
<path d="M968.588 376.8C968.443 376.8 968.297 376.728 968.188 376.655C968.079 376.546 968.043 376.4 968.043 376.255V351.445C968.043 351.154 968.297 350.899 968.588 350.899H1001.57C1001.86 350.899 1002.12 351.154 1002.12 351.445V359.666L1024.2 375.345C1024.38 375.491 1024.49 375.745 1024.42 375.964C1024.35 376.182 1024.13 376.327 1023.91 376.364L968.588 376.8ZM969.133 351.991V375.709L1022.2 375.236L1001.24 360.358C1001.1 360.248 1001.03 360.103 1001.03 359.921V351.954H969.133V351.991Z" fill="#0B0F19"/>
<path d="M905.893 351.661L968.589 351.406V360.719L990.784 375.961L906.437 377.016L905.893 351.661Z" fill="white"/>
<path d="M906.437 377.563C906.146 377.563 905.892 377.308 905.892 377.017L905.347 351.698C905.347 351.553 905.383 351.407 905.492 351.298C905.601 351.189 905.746 351.116 905.892 351.116L968.588 350.861C968.734 350.861 968.879 350.934 968.988 351.007C969.097 351.116 969.133 351.262 969.133 351.407V360.429L991.074 375.489C991.255 375.635 991.364 375.853 991.291 376.108C991.219 376.326 991.001 376.508 990.783 376.508L906.437 377.563C906.473 377.563 906.437 377.563 906.437 377.563ZM906.437 352.207L906.982 376.435L989.039 375.453L968.262 361.193C968.116 361.084 968.007 360.938 968.007 360.756V351.989L906.437 352.207Z" fill="#0B0F19"/>
<path d="M917.295 169.117L918.893 150.928L917.622 131.83L918.893 150.928L932.842 140.488C932.842 140.488 914.68 115.132 906.615 113.859C902.039 117.169 898.37 111.822 898.37 111.822C898.37 111.822 873.705 112.622 867.094 136.122C881.406 140.706 891.759 143.507 891.759 143.507L894.701 132.23L888.271 163.26L917.295 169.117Z" fill="white"/>
<path d="M917.296 169.661C917.26 169.661 917.223 169.661 917.187 169.661L888.2 163.768C888.054 163.731 887.945 163.658 887.836 163.549C887.727 163.44 887.727 163.295 887.764 163.149L891.723 144.051C891.687 144.051 891.687 144.051 891.651 144.051C891.542 144.015 881.08 141.213 866.95 136.666C866.659 136.593 866.514 136.266 866.586 136.011C870.037 123.679 878.501 117.604 885.003 114.694C892.014 111.566 898.116 111.311 898.371 111.311C898.552 111.311 898.734 111.384 898.843 111.529C898.843 111.566 900.514 113.93 902.875 114.33C904.037 114.512 905.2 114.221 906.326 113.421C906.435 113.348 906.58 113.312 906.725 113.312C914.935 114.621 932.552 139.104 933.315 140.158C933.497 140.413 933.424 140.741 933.206 140.922L919.475 151.217L917.877 169.188C917.877 169.333 917.768 169.479 917.659 169.588C917.514 169.624 917.405 169.661 917.296 169.661ZM888.926 162.785L916.787 168.46L918.349 150.926L917.078 131.864V131.828C917.078 131.537 917.296 131.319 917.586 131.282C917.877 131.246 918.131 131.501 918.168 131.792L919.366 149.871L932.08 140.34C929.683 137.03 914.027 115.931 906.762 114.403C905.454 115.276 904.074 115.604 902.693 115.385C900.369 114.985 898.661 113.057 898.116 112.366C896.845 112.439 891.396 112.948 885.403 115.64C876.467 119.678 870.546 126.408 867.785 135.72C879.845 139.576 889.144 142.159 891.396 142.778L894.193 132.01C894.266 131.719 894.557 131.537 894.847 131.61C895.138 131.682 895.319 131.974 895.247 132.265L888.926 162.785Z" fill="#0B0F19"/>
<path d="M867.098 136.087C867.098 136.087 858.343 175.885 860.051 178.831C861.758 181.778 909.452 191.454 921.912 191.891C934.371 192.327 930.702 173.811 926.888 171.665C923.111 169.519 888.275 163.225 888.275 163.225L891.762 143.472L867.098 136.087Z" fill="white"/>
<path d="M922.347 192.438C922.202 192.438 922.02 192.438 921.875 192.438C915.155 192.183 899.426 189.455 886.822 186.835C879.048 185.235 860.813 181.233 859.578 179.123C859.251 178.578 858.416 177.123 862.375 156.278C864.337 146.092 866.516 136.089 866.552 136.016C866.589 135.87 866.661 135.725 866.807 135.652C866.952 135.579 867.097 135.543 867.243 135.616L891.943 143C892.198 143.073 892.379 143.328 892.307 143.619L888.929 162.826C893.505 163.663 923.582 169.192 927.179 171.229C929.903 172.757 932.082 180.797 930.557 186.29C929.721 189.091 927.651 192.438 922.347 192.438ZM867.497 136.78C864.119 152.131 859.36 176.541 860.522 178.541C861.14 179.487 869.749 182.143 887.149 185.781C899.681 188.363 915.3 191.092 921.911 191.346C925.871 191.492 928.414 189.673 929.467 185.962C930.157 183.561 930.121 180.469 929.358 177.45C928.704 174.831 927.614 172.721 926.597 172.139C923.655 170.466 900.153 165.918 888.166 163.772C887.875 163.736 887.657 163.445 887.73 163.154L891.144 143.91L867.497 136.78Z" fill="#0B0F19"/>
<path d="M919.439 150.639L930.482 142.236L939.055 156.787L930.518 171.847L917.333 168.973L919.439 150.639Z" fill="white"/>
<path d="M930.518 172.391C930.481 172.391 930.445 172.391 930.409 172.391L917.223 169.517C916.932 169.444 916.751 169.19 916.787 168.935L918.93 150.601C918.93 150.455 919.039 150.31 919.148 150.237L930.191 141.834C930.3 141.725 930.481 141.688 930.627 141.725C930.772 141.761 930.917 141.834 930.99 141.979L939.563 156.53C939.672 156.712 939.672 156.894 939.563 157.076L930.99 172.136C930.881 172.282 930.699 172.391 930.518 172.391ZM917.913 168.571L930.227 171.227L938.436 156.785L930.336 143.034L919.947 150.928L917.913 168.571Z" fill="#0B0F19"/>
<path d="M919.913 113.933C927.941 111.241 924.745 95.9991 920.458 89.8877C912.866 79.0471 894.159 80.9024 889.292 95.5626C888.238 98.7638 881.7 100.183 884.242 105.275C886.022 108.84 893.142 106.985 893.142 106.985C893.142 106.985 915.119 115.534 919.913 113.933Z" fill="#0B0F19"/>
<path d="M918.351 114.66C911.667 114.66 895.067 108.33 893.105 107.566C891.943 107.857 885.55 109.167 883.77 105.529C881.954 101.855 884.387 99.8178 886.349 98.1444C887.439 97.235 888.456 96.3619 888.783 95.3797C891.071 88.4316 896.701 83.6297 903.821 82.5748C910.65 81.5562 917.189 84.2482 920.894 89.5229C924.236 94.252 926.597 103.601 924.708 109.385C923.872 111.932 922.31 113.641 920.058 114.369C919.622 114.587 919.041 114.66 918.351 114.66ZM893.142 106.475C893.214 106.475 893.287 106.475 893.323 106.511C898.808 108.621 912.83 113.605 918.278 113.605C918.86 113.605 919.368 113.532 919.731 113.423C921.62 112.768 922.964 111.35 923.691 109.13C925.434 103.783 923.182 94.7249 920.022 90.2141C916.535 85.2667 910.396 82.7567 904.003 83.7025C897.283 84.6847 892.015 89.1955 889.836 95.7435C889.4 97.0531 888.238 98.0353 887.075 99.0175C885.077 100.727 883.334 102.182 884.751 105.056C885.55 106.657 887.693 106.984 889.364 106.948C891.289 106.948 892.996 106.475 892.996 106.475C893.069 106.475 893.105 106.475 893.142 106.475Z" fill="#0B0F19"/>
<path d="M898.373 111.825L900.298 106.332C900.298 106.332 898.3 103.568 898.373 102.003C898.446 100.439 895.358 101.53 896.157 98.3291C896.993 95.1279 901.025 98.6929 903.023 99.5296C905.02 100.366 908.762 98.4019 910.723 98.2564C912.067 98.1472 913.411 99.4568 913.775 100.294C914.537 102.04 913.484 104.513 911.45 105.677C909.416 106.878 906.401 107.06 906.401 107.06L906.11 114.19C906.11 114.19 905.674 115.681 901.751 114.59C897.828 113.462 898.373 111.825 898.373 111.825Z" fill="white"/>
<path d="M904.222 115.5C903.568 115.5 902.696 115.391 901.606 115.1C899.717 114.591 898.519 113.827 898.01 112.918C897.647 112.263 897.792 111.753 897.829 111.644L899.645 106.406C899.136 105.642 897.683 103.459 897.792 101.968C897.792 101.786 897.756 101.713 897.138 101.459C896.339 101.131 894.995 100.585 895.613 98.1845C895.831 97.3842 896.23 96.8386 896.811 96.6203C898.119 96.0746 899.935 97.166 901.534 98.1118C902.151 98.4756 902.769 98.8393 903.205 99.0212C904.331 99.4578 906.22 98.8757 907.891 98.3664C908.908 98.039 909.888 97.748 910.651 97.7116C912.25 97.6025 913.775 99.0212 914.247 100.076C915.119 102.041 913.957 104.842 911.705 106.151C910.07 107.097 907.891 107.461 906.91 107.57L906.619 114.191C906.619 114.227 906.619 114.263 906.583 114.3C906.619 114.445 906.256 115.5 904.222 115.5ZM898.882 111.972C898.882 112.081 898.773 113.172 901.897 114.045C904.44 114.736 905.384 114.3 905.566 114.009L905.856 107.024C905.856 106.733 906.074 106.515 906.365 106.515C906.401 106.515 909.271 106.333 911.16 105.205C912.94 104.15 913.92 101.968 913.267 100.513C912.94 99.7852 911.777 98.7302 910.76 98.803C910.106 98.8393 909.198 99.1304 908.254 99.4214C906.401 100.003 904.294 100.658 902.805 100.04C902.297 99.8215 901.643 99.4578 900.989 99.0576C899.754 98.33 898.047 97.3115 897.211 97.6389C897.102 97.6753 896.811 97.7844 896.63 98.4756C896.267 99.9307 896.775 100.149 897.538 100.476C898.083 100.695 898.918 101.058 898.846 102.041C898.773 103.023 899.935 104.987 900.662 106.006C900.771 106.151 900.807 106.333 900.735 106.515L898.882 111.972Z" fill="#0B0F19"/>
<path d="M1109.46 193.276H744.281C743.991 193.276 743.737 193.021 743.737 192.73C743.737 192.439 743.991 192.185 744.281 192.185H1109.46C1109.75 192.185 1110 192.439 1110 192.73C1110 193.021 1109.78 193.276 1109.46 193.276Z" fill="#0B0F19"/>
<path d="M835.857 192.561L784.735 389.239L785.789 389.514L836.912 192.836L835.857 192.561Z" fill="#565973"/>
<path d="M791.267 192.536L790.231 192.876L857.319 397.818L858.354 397.478L791.267 192.536Z" fill="#565973"/>
<path d="M1019.49 192.546L1018.45 192.891L1086.64 397.821L1087.67 397.476L1019.49 192.546Z" fill="#565973"/>
<path d="M1065.2 192.542L1014.08 386.489L1015.14 386.768L1066.25 192.82L1065.2 192.542Z" fill="#565973"/>
<path d="M764.84 168.898C764.622 168.898 764.404 168.753 764.332 168.571C764.259 168.389 757.466 151.51 748.131 147.254C747.84 147.145 747.731 146.817 747.877 146.526C747.986 146.235 748.312 146.126 748.603 146.271C752.708 148.163 756.776 152.419 760.699 158.931C763.605 163.769 765.349 168.098 765.385 168.171C765.494 168.462 765.349 168.753 765.095 168.862C764.986 168.898 764.913 168.898 764.84 168.898Z" fill="#0B0F19"/>
<path d="M748.353 146.744C748.353 146.744 740.979 135.03 738.073 138.413C734.041 143.07 748.353 146.744 748.353 146.744Z" fill="#565973"/>
<path d="M748.352 147.291C748.316 147.291 748.28 147.291 748.207 147.291C747.19 147 738.072 144.563 736.91 140.889C736.619 139.906 736.837 138.961 737.637 138.088C738.145 137.505 738.799 137.214 739.562 137.287C741.124 137.396 743.158 138.997 745.628 142.053C747.408 144.272 748.752 146.382 748.825 146.491C748.934 146.673 748.934 146.927 748.788 147.109C748.679 147.218 748.534 147.291 748.352 147.291ZM739.344 138.342C738.981 138.342 738.69 138.488 738.436 138.779C737.927 139.397 737.745 139.979 737.927 140.561C738.617 142.817 743.884 144.854 747.045 145.836C745.156 143.071 741.596 138.524 739.416 138.379C739.416 138.342 739.38 138.342 739.344 138.342Z" fill="#0B0F19"/>
<path d="M757.865 155.618C755.25 149.943 747.622 160.748 747.622 160.748C747.622 160.748 759.318 158.71 757.865 155.618Z" fill="#565973"/>
<path d="M748.154 161.295C747.972 161.295 747.791 161.186 747.682 161.041C747.573 160.859 747.573 160.604 747.682 160.422C748.227 159.658 752.949 153.11 756.472 153.438C757.526 153.547 758.325 154.202 758.87 155.402C759.124 155.911 759.088 156.493 758.834 157.003C757.453 159.622 749.171 161.15 748.227 161.295C748.227 161.295 748.19 161.295 748.154 161.295ZM756.218 154.493C754.184 154.493 751.133 157.767 749.425 159.913C752.767 159.222 757.126 157.876 757.853 156.457C757.962 156.239 757.962 156.057 757.889 155.839C757.49 155.002 757.017 154.565 756.363 154.529C756.327 154.493 756.291 154.493 756.218 154.493Z" fill="#0B0F19"/>
<path d="M770.145 125.284C771.526 142.636 775.376 168.646 775.376 168.646L770.145 125.284Z" fill="#0B0F19"/>
<path d="M775.338 169.23C775.084 169.23 774.829 169.048 774.793 168.757C774.757 168.503 770.943 142.529 769.562 125.359C769.526 125.068 769.78 124.813 770.071 124.777C770.361 124.74 770.616 124.995 770.652 125.286C771.996 142.42 775.847 168.357 775.883 168.612C775.919 168.903 775.738 169.194 775.411 169.23C775.411 169.23 775.374 169.23 775.338 169.23Z" fill="#0B0F19"/>
<path d="M769.274 108.839C771.453 108.621 777.955 127.974 769.928 127.065C762.808 126.228 769.274 108.839 769.274 108.839Z" fill="#565973"/>
<path d="M770.472 127.611C770.29 127.611 770.072 127.611 769.89 127.574C768.619 127.429 767.638 126.811 767.021 125.756C764.187 121.136 768.619 109.131 768.801 108.622C768.873 108.44 769.055 108.294 769.273 108.258C769.854 108.185 770.435 108.658 771.089 109.749C773.014 112.878 775.884 122.227 773.523 125.974C772.796 127.065 771.779 127.611 770.472 127.611ZM769.6 109.604C769.237 110.659 768.474 112.987 767.893 115.643C766.875 120.226 766.875 123.537 767.929 125.21C768.401 125.974 769.091 126.41 769.999 126.519C771.743 126.738 772.76 125.865 773.16 123.9C774.068 119.208 770.98 111.023 769.6 109.604Z" fill="#0B0F19"/>
<path d="M771.09 135.796C770.909 135.796 770.727 135.687 770.618 135.542C770.582 135.469 766.913 129.394 761.028 128.921C755.253 128.484 754.127 128.848 754.09 128.884C753.836 129.03 753.509 128.921 753.364 128.63C753.219 128.375 753.364 128.011 753.618 127.902C753.8 127.793 755.035 127.357 761.101 127.83C767.531 128.339 771.381 134.705 771.526 134.96C771.672 135.214 771.599 135.542 771.345 135.724C771.272 135.796 771.163 135.796 771.09 135.796Z" fill="#0B0F19"/>
<path d="M753.618 127.725C752.491 120.376 741.594 129.18 741.594 129.18C741.594 129.18 754.38 132.745 753.618 127.725Z" fill="#565973"/>
<path d="M749.44 130.96C748.531 130.96 747.478 130.888 746.316 130.706C743.737 130.342 741.521 129.724 741.412 129.724C741.23 129.687 741.049 129.505 741.012 129.323C740.976 129.105 741.049 128.923 741.194 128.778C741.484 128.56 748.313 123.103 751.982 124.522C753.145 124.995 753.871 126.049 754.125 127.65C754.271 128.596 754.016 129.396 753.363 129.942C752.636 130.597 751.292 130.96 749.44 130.96ZM742.792 128.96C745.734 129.651 751.074 130.56 752.672 129.142C753.036 128.814 753.145 128.414 753.072 127.832C752.89 126.595 752.418 125.868 751.619 125.54C749.403 124.667 745.081 127.286 742.792 128.96Z" fill="#0B0F19"/>
<path d="M772.033 144.237C771.961 144.237 771.852 144.2 771.779 144.164C771.525 144.018 771.416 143.691 771.525 143.436C771.634 143.182 774.721 137.143 782.35 132.923C788.089 129.758 791.322 128.776 791.431 128.74C791.721 128.667 792.012 128.813 792.121 129.104C792.194 129.395 792.048 129.686 791.758 129.795C791.721 129.795 788.488 130.777 782.894 133.869C775.557 137.943 772.542 143.873 772.506 143.909C772.433 144.128 772.215 144.237 772.033 144.237Z" fill="#0B0F19"/>
<path d="M791.976 129.288C789.578 120.521 809.811 126.014 809.811 126.014C809.811 126.014 793.683 135.545 791.976 129.288Z" fill="#565973"/>
<path d="M795.391 131.94C794.628 131.94 793.938 131.831 793.357 131.613C792.376 131.212 791.722 130.485 791.431 129.43C790.995 127.756 791.25 126.411 792.194 125.465C793.792 123.864 797.28 123.391 802.583 124.046C806.434 124.519 809.884 125.465 809.921 125.465C810.139 125.537 810.284 125.683 810.32 125.901C810.357 126.119 810.248 126.338 810.066 126.447C809.666 126.702 800.767 131.94 795.391 131.94ZM798.406 124.846C796.045 124.846 794.01 125.21 792.993 126.229C792.303 126.92 792.158 127.866 792.485 129.139C792.666 129.83 793.102 130.303 793.756 130.594C795.463 131.285 798.696 130.63 803.128 128.739C805.235 127.829 807.16 126.847 808.322 126.192C805.78 125.574 801.784 124.846 798.406 124.846Z" fill="#0B0F19"/>
<path d="M786.637 169.227C786.347 169.227 786.092 169.009 786.092 168.682C786.092 168.209 785.765 157.15 789.979 153.84C790.233 153.658 790.56 153.694 790.742 153.949C790.924 154.204 790.887 154.531 790.633 154.713C786.855 157.696 787.182 168.573 787.182 168.682C787.182 168.973 786.964 169.227 786.637 169.227Z" fill="#0B0F19"/>
<path d="M804.361 143.983C804.361 143.983 784.927 147.912 789.976 154.278C793.354 158.57 804.361 143.983 804.361 143.983Z" fill="#565973"/>
<path d="M791.612 155.625C790.777 155.625 790.05 155.297 789.542 154.606C788.597 153.442 788.38 152.242 788.815 151.041C790.559 146.239 803.709 143.547 804.254 143.438C804.471 143.402 804.689 143.475 804.835 143.693C804.944 143.875 804.944 144.129 804.798 144.311C804.471 144.784 796.262 155.552 791.612 155.625C791.649 155.625 791.649 155.625 791.612 155.625ZM803.018 144.857C798.732 145.875 790.995 148.349 789.833 151.441C789.542 152.242 789.724 153.078 790.414 153.951C790.741 154.351 791.14 154.533 791.649 154.533C794.664 154.497 800.185 148.349 803.018 144.857Z" fill="#0B0F19"/>
<path d="M781.804 149.111C786.345 146.964 787.289 160.206 787.289 160.206C787.289 160.206 777.372 151.221 781.804 149.111Z" fill="#565973"/>
<path d="M787.326 160.789C787.181 160.789 787.072 160.753 786.963 160.644C786.89 160.571 785.146 158.97 783.439 156.969C781.042 154.168 779.952 151.986 780.206 150.458C780.315 149.658 780.824 149.003 781.623 148.639C782.458 148.239 783.294 148.275 784.02 148.712C785.364 149.512 786.418 151.695 787.181 155.26C787.726 157.806 787.871 160.134 787.907 160.243C787.907 160.462 787.798 160.68 787.617 160.789C787.471 160.753 787.399 160.789 787.326 160.789ZM782.059 149.621C781.587 149.839 781.332 150.167 781.26 150.603C780.969 152.677 784.42 156.606 786.636 158.825C786.273 155.769 785.292 150.712 783.439 149.621C783.003 149.366 782.567 149.366 782.059 149.621Z" fill="#0B0F19"/>
<path d="M792.778 168.353H759.904V192.69H792.778V168.353Z" fill="#D4D7E5"/>
<path d="M792.777 193.235H759.903C759.612 193.235 759.358 192.981 759.358 192.69V168.317C759.358 168.026 759.612 167.771 759.903 167.771H792.777C793.067 167.771 793.321 168.026 793.321 168.317V192.69C793.321 193.017 793.067 193.235 792.777 193.235ZM760.447 192.144H792.232V168.862H760.447V192.144Z" fill="#0B0F19"/>
<path d="M917.297 192.73L950.97 124.34H1041.64L1011.81 192.73H917.297Z" fill="url(#paint0_linear_20005153_3934)"/>
<path d="M1011.85 193.276H917.296C917.114 193.276 916.933 193.167 916.824 193.022C916.715 192.876 916.715 192.658 916.787 192.476L950.461 124.086C950.57 123.904 950.751 123.795 950.933 123.795H1041.64C1041.82 123.795 1042 123.904 1042.11 124.05C1042.22 124.195 1042.22 124.413 1042.14 124.559L1012.32 192.949C1012.25 193.167 1012.07 193.276 1011.85 193.276ZM918.168 192.185H1011.49L1040.84 124.886H951.332L918.168 192.185Z" fill="#0B0F19"/>
<path d="M987.84 155.257C987.84 155.257 984.353 154.311 981.882 156.057C980.793 156.821 977.414 159.44 979.194 161.659C980.974 163.878 984.28 161.95 985.551 160.022C986.823 158.058 987.84 155.257 987.84 155.257Z" fill="white"/>
<path d="M981.228 163.153C980.248 163.153 979.412 162.753 978.758 161.953C978.25 161.334 978.068 160.607 978.177 159.843C978.431 158.024 980.429 156.351 981.555 155.55C984.207 153.695 987.803 154.641 987.985 154.677C988.13 154.714 988.239 154.823 988.312 154.968C988.384 155.114 988.384 155.259 988.348 155.405C988.312 155.514 987.295 158.315 985.987 160.279C985.079 161.662 983.19 163.081 981.374 163.153C981.337 163.153 981.265 163.153 981.228 163.153ZM985.624 155.55C984.57 155.55 983.263 155.732 982.173 156.496C981.519 156.933 979.449 158.533 979.231 160.061C979.158 160.534 979.303 160.934 979.594 161.334C980.03 161.88 980.611 162.135 981.301 162.098C982.754 162.026 984.316 160.825 985.043 159.697C985.914 158.351 986.677 156.569 987.04 155.66C986.713 155.587 986.205 155.55 985.624 155.55Z" fill="#0B0F19"/>
<path d="M1082.5 186.325C1082.47 186.325 1082.47 186.325 1082.43 186.325C1082.14 186.289 1081.92 185.998 1081.96 185.707L1093.87 93.4165L1039.93 63.9869C1039.68 63.8414 1039.57 63.514 1039.71 63.2594C1039.86 63.0047 1040.18 62.8956 1040.44 63.0411L1094.74 92.6526C1094.93 92.7617 1095.03 92.98 1095.03 93.1982L1083.05 185.852C1083.01 186.143 1082.76 186.325 1082.5 186.325Z" fill="#565973"/>
<path d="M1040.18 63.5166L1013.92 74.6482L1040.69 91.3092L1040.18 63.5166Z" fill="#D4D7E5"/>
<path d="M1040.69 91.8537C1040.58 91.8537 1040.51 91.8173 1040.4 91.781L1013.63 75.12C1013.45 75.0108 1013.38 74.829 1013.38 74.6107C1013.38 74.3924 1013.52 74.2469 1013.7 74.1378L1039.97 63.0062C1040.15 62.9335 1040.33 62.9698 1040.47 63.0426C1040.62 63.1517 1040.73 63.2972 1040.73 63.4791L1041.24 91.2717C1041.24 91.4536 1041.13 91.6718 1040.95 91.7446C1040.87 91.8173 1040.8 91.8537 1040.69 91.8537ZM1015.12 74.7562L1040.15 90.3258L1039.68 64.3522L1015.12 74.7562Z" fill="#0B0F19"/>
<path d="M1026.96 91.0125C1030.81 91.0125 1033.9 87.884 1033.9 84.0644C1033.9 80.2083 1030.78 77.1162 1026.96 77.1162C1023.11 77.1162 1020.03 80.2447 1020.03 84.0644C1020.03 87.884 1023.11 91.0125 1026.96 91.0125Z" fill="white"/>
<path d="M1026.96 91.5595C1022.82 91.5595 1019.48 88.2128 1019.48 84.0657C1019.48 79.9186 1022.82 76.5719 1026.96 76.5719C1031.1 76.5719 1034.45 79.9186 1034.45 84.0657C1034.45 88.1764 1031.1 91.5595 1026.96 91.5595ZM1026.96 77.6269C1023.44 77.6269 1020.57 80.5007 1020.57 84.0293C1020.57 87.558 1023.44 90.4318 1026.96 90.4318C1030.49 90.4318 1033.36 87.558 1033.36 84.0293C1033.36 80.5007 1030.49 77.6269 1026.96 77.6269Z" fill="#0B0F19"/>
<path d="M1099.87 184.833H1064.63V192.326H1099.9V184.833H1099.87Z" fill="#D4D7E5"/>
<path d="M1099.87 192.907H1064.63C1064.34 192.907 1064.09 192.653 1064.09 192.362V184.868C1064.09 184.577 1064.34 184.322 1064.63 184.322H1099.9C1100.19 184.322 1100.45 184.577 1100.45 184.868V192.362C1100.41 192.653 1100.19 192.907 1099.87 192.907ZM1065.18 191.816H1099.36V185.413H1065.18V191.816Z" fill="#0B0F19"/>
<path d="M834.73 70.2057C841.269 73.989 849.66 71.7336 853.438 65.1856C857.215 58.6376 854.963 50.2344 848.425 46.4511C841.886 42.6678 833.495 44.9232 829.717 51.4712C825.94 58.0192 828.192 66.4225 834.73 70.2057Z" fill="white"/>
<path d="M841.56 72.5727C839.09 72.5727 836.656 71.9179 834.477 70.6446C827.684 66.7158 825.323 57.9852 829.246 51.1462C831.135 47.8358 834.223 45.4713 837.891 44.4891C841.56 43.5069 845.411 44.0162 848.716 45.9078C852.022 47.7994 854.383 50.8916 855.364 54.5657C856.344 58.2398 855.836 62.0959 853.947 65.4062C852.058 68.7166 848.97 71.0812 845.302 72.0634C844.03 72.4271 842.795 72.5727 841.56 72.5727ZM841.597 45.1439C840.47 45.1439 839.308 45.2894 838.182 45.5804C834.804 46.4899 831.934 48.6725 830.191 51.7282C826.558 58.0216 828.738 66.0974 835.022 69.7352C838.073 71.4813 841.597 71.9542 845.011 71.0448C848.389 70.1353 851.259 67.9527 853.003 64.897C854.746 61.8412 855.218 58.3126 854.31 54.8931C853.402 51.51 851.223 48.6361 848.171 46.89C846.137 45.7259 843.885 45.1439 841.597 45.1439Z" fill="#565973"/>
<path d="M842.468 64.8981C842.323 64.8981 842.214 64.8617 842.105 64.7525L836.547 59.5505C836.33 59.3323 836.33 59.0049 836.511 58.7866C836.729 58.5683 837.056 58.5683 837.274 58.7502L842.868 63.9522C843.086 64.1705 843.086 64.4979 842.904 64.7162C842.759 64.8617 842.614 64.8981 842.468 64.8981Z" fill="#565973"/>
<path d="M847.373 63.2594C847.119 63.2594 846.901 63.0775 846.828 62.8228L845.629 56.0566C845.593 55.7656 845.775 55.4746 846.065 55.4382C846.356 55.3654 846.646 55.5837 846.683 55.8747L847.881 62.641C847.918 62.932 847.736 63.223 847.446 63.2594C847.446 63.2594 847.409 63.2594 847.373 63.2594Z" fill="#565973"/>
<path d="M835.604 56.4615C835.314 56.4615 835.059 56.2433 835.059 55.9523C835.059 55.8431 834.987 53.042 836.73 52.169C837.929 51.5869 839.055 52.4236 839.745 53.2967C840.435 52.2781 841.743 50.5684 843.087 50.3865C844.649 50.1682 845.957 52.6055 846.211 53.1148C846.356 53.3694 846.247 53.6968 845.957 53.8424C845.702 53.9879 845.376 53.8787 845.23 53.5877C844.758 52.6419 843.814 51.405 843.232 51.4778C842.252 51.6233 840.871 53.4422 840.217 54.5699C840.108 54.7518 839.927 54.8246 839.745 54.8246C839.564 54.8246 839.382 54.7154 839.273 54.5699C839.273 54.5335 838.147 52.6783 837.166 53.1512C836.04 53.6968 836.113 55.8795 836.113 55.9159C836.149 56.1705 835.931 56.4252 835.604 56.4615Z" fill="#565973"/>
<path d="M852.857 67.1188C852.857 67.1188 855.036 69.6288 854.019 71.0476C853.002 72.4299 841.923 76.4678 840.361 75.7767C838.799 75.0855 838.981 71.8115 838.981 71.8115C838.981 71.8115 843.994 72.539 846.718 71.0476C849.515 69.5197 852.857 67.1188 852.857 67.1188Z" fill="white"/>
<path d="M840.87 76.3558C840.579 76.3558 840.325 76.3195 840.144 76.2467C838.291 75.41 838.436 72.136 838.436 71.7359C838.436 71.5904 838.509 71.4449 838.654 71.3357C838.763 71.2266 838.908 71.1902 839.09 71.2266C839.126 71.2266 843.921 71.9178 846.5 70.5354C849.188 69.0439 852.53 66.6794 852.567 66.6794C852.785 66.5339 853.112 66.5703 853.293 66.7521C853.547 67.0432 855.727 69.6624 854.492 71.3357C853.475 72.7181 843.994 76.3558 840.87 76.3558ZM839.562 72.4271C839.599 73.4093 839.817 74.9371 840.616 75.2645C841.851 75.8102 852.639 72.0269 853.62 70.7173C854.129 70.0261 853.329 68.6438 852.785 67.8799C851.804 68.571 849.225 70.3172 847.045 71.5176C844.684 72.7908 841.015 72.5726 839.562 72.4271Z" fill="#565973"/>
<path d="M852.604 72.5385C852.604 72.5385 855.074 74.1391 853.984 75.485C852.894 76.831 843.886 79.9595 842.651 78.177C841.743 76.7946 842.178 75.7761 843.341 75.4487C845.23 74.9394 852.604 72.5385 852.604 72.5385Z" fill="white"/>
<path d="M844.358 79.2693C844.249 79.2693 844.177 79.2693 844.104 79.2693C843.196 79.233 842.542 78.9783 842.215 78.469C841.489 77.4141 841.561 76.6138 841.743 76.1409C841.961 75.5588 842.506 75.1223 843.196 74.904C845.048 74.3947 852.35 72.0302 852.422 72.0302C852.568 71.9938 852.749 71.9938 852.895 72.1029C853.076 72.2121 854.565 73.2306 854.783 74.4675C854.856 74.9768 854.747 75.4497 854.42 75.8498C853.367 77.1231 847.446 79.2693 844.358 79.2693ZM852.495 73.1579C851.151 73.5944 845.194 75.5224 843.45 75.9953C843.196 76.0681 842.833 76.2136 842.724 76.541C842.578 76.8684 842.724 77.3413 843.087 77.887C843.123 77.9597 843.341 78.1416 844.104 78.178C847.01 78.3235 852.822 76.0317 853.548 75.1587C853.694 74.9768 853.73 74.8313 853.694 74.6494C853.621 74.0673 852.931 73.4489 852.495 73.1579Z" fill="#565973"/>
<path d="M852.965 76.6104L854.818 82.2853C854.818 82.2853 849.878 84.5043 849.151 83.9586C848.388 83.413 846.209 78.8294 846.209 78.8294L852.965 76.6104Z" fill="white"/>
<path d="M849.479 84.5392C849.152 84.5392 848.934 84.4664 848.789 84.3937C847.989 83.8116 846.21 80.1739 845.701 79.0462C845.628 78.9007 845.628 78.7551 845.701 78.6096C845.774 78.4641 845.883 78.355 846.028 78.3186L852.784 76.0996C852.93 76.0632 853.075 76.0632 853.184 76.136C853.329 76.2087 853.402 76.3178 853.438 76.4634L855.291 82.1383C855.363 82.3929 855.254 82.6839 855 82.7931C851.949 84.139 850.351 84.5392 849.479 84.5392ZM849.406 83.4842C849.915 83.5934 852.167 82.8294 854.128 81.9928L852.603 77.3L846.936 79.1553C847.917 81.0833 849.007 83.1205 849.406 83.4842Z" fill="#565973"/>
<path d="M111.68 124V106.72H118.352C118.52 106.72 118.708 106.728 118.916 106.744C119.132 106.752 119.348 106.776 119.564 106.816C120.468 106.952 121.232 107.268 121.856 107.764C122.488 108.252 122.964 108.868 123.284 109.612C123.612 110.356 123.776 111.18 123.776 112.084C123.776 113.388 123.432 114.52 122.744 115.48C122.056 116.44 121.072 117.044 119.792 117.292L119.18 117.436H113.444V124H111.68ZM122.144 124L118.736 116.968L120.428 116.32L124.172 124H122.144ZM113.444 115.756H118.304C118.448 115.756 118.616 115.748 118.808 115.732C119 115.716 119.188 115.688 119.372 115.648C119.964 115.52 120.448 115.276 120.824 114.916C121.208 114.556 121.492 114.128 121.676 113.632C121.868 113.136 121.964 112.62 121.964 112.084C121.964 111.548 121.868 111.032 121.676 110.536C121.492 110.032 121.208 109.6 120.824 109.24C120.448 108.88 119.964 108.636 119.372 108.508C119.188 108.468 119 108.444 118.808 108.436C118.616 108.42 118.448 108.412 118.304 108.412H113.444V115.756ZM132.305 124.36C131.041 124.36 129.945 124.08 129.017 123.52C128.097 122.96 127.381 122.172 126.869 121.156C126.357 120.14 126.101 118.948 126.101 117.58C126.101 116.164 126.353 114.94 126.857 113.908C127.361 112.876 128.069 112.08 128.981 111.52C129.901 110.96 130.985 110.68 132.233 110.68C133.513 110.68 134.605 110.976 135.509 111.568C136.413 112.152 137.097 112.992 137.561 114.088C138.025 115.184 138.237 116.492 138.197 118.012H136.397V117.388C136.365 115.708 136.001 114.44 135.305 113.584C134.617 112.728 133.609 112.3 132.281 112.3C130.889 112.3 129.821 112.752 129.077 113.656C128.341 114.56 127.973 115.848 127.973 117.52C127.973 119.152 128.341 120.42 129.077 121.324C129.821 122.22 130.873 122.668 132.233 122.668C133.161 122.668 133.969 122.456 134.657 122.032C135.353 121.6 135.901 120.98 136.301 120.172L137.945 120.808C137.433 121.936 136.677 122.812 135.677 123.436C134.685 124.052 133.561 124.36 132.305 124.36ZM127.349 118.012V116.536H137.249V118.012H127.349ZM144.333 124.36C143.357 124.36 142.537 124.184 141.873 123.832C141.217 123.48 140.725 123.012 140.397 122.428C140.069 121.844 139.905 121.208 139.905 120.52C139.905 119.816 140.045 119.216 140.325 118.72C140.613 118.216 141.001 117.804 141.489 117.484C141.985 117.164 142.557 116.92 143.205 116.752C143.861 116.592 144.585 116.452 145.377 116.332C146.177 116.204 146.957 116.096 147.717 116.008C148.485 115.912 149.157 115.82 149.733 115.732L149.109 116.116C149.133 114.836 148.885 113.888 148.365 113.272C147.845 112.656 146.941 112.348 145.653 112.348C144.765 112.348 144.013 112.548 143.397 112.948C142.789 113.348 142.361 113.98 142.113 114.844L140.397 114.34C140.693 113.18 141.289 112.28 142.185 111.64C143.081 111 144.245 110.68 145.677 110.68C146.861 110.68 147.865 110.904 148.689 111.352C149.521 111.792 150.109 112.432 150.453 113.272C150.613 113.648 150.717 114.068 150.765 114.532C150.813 114.996 150.837 115.468 150.837 115.948V124H149.265V120.748L149.721 120.94C149.281 122.052 148.597 122.9 147.669 123.484C146.741 124.068 145.629 124.36 144.333 124.36ZM144.537 122.836C145.361 122.836 146.081 122.688 146.697 122.392C147.313 122.096 147.809 121.692 148.185 121.18C148.561 120.66 148.805 120.076 148.917 119.428C149.013 119.012 149.065 118.556 149.073 118.06C149.081 117.556 149.085 117.18 149.085 116.932L149.757 117.28C149.157 117.36 148.505 117.44 147.801 117.52C147.105 117.6 146.417 117.692 145.737 117.796C145.065 117.9 144.457 118.024 143.913 118.168C143.545 118.272 143.189 118.42 142.845 118.612C142.501 118.796 142.217 119.044 141.993 119.356C141.777 119.668 141.669 120.056 141.669 120.52C141.669 120.896 141.761 121.26 141.945 121.612C142.137 121.964 142.441 122.256 142.857 122.488C143.281 122.72 143.841 122.836 144.537 122.836ZM158.989 124.36C157.781 124.36 156.749 124.06 155.893 123.46C155.037 122.852 154.381 122.032 153.925 121C153.469 119.968 153.241 118.804 153.241 117.508C153.241 116.22 153.465 115.06 153.913 114.028C154.369 112.996 155.021 112.18 155.869 111.58C156.717 110.98 157.733 110.68 158.917 110.68C160.133 110.68 161.157 110.976 161.989 111.568C162.821 112.16 163.449 112.972 163.873 114.004C164.305 115.028 164.521 116.196 164.521 117.508C164.521 118.796 164.309 119.96 163.885 121C163.461 122.032 162.837 122.852 162.013 123.46C161.189 124.06 160.181 124.36 158.989 124.36ZM159.169 122.716C160.089 122.716 160.849 122.492 161.449 122.044C162.049 121.596 162.497 120.98 162.793 120.196C163.089 119.404 163.237 118.508 163.237 117.508C163.237 116.492 163.089 115.596 162.793 114.82C162.497 114.036 162.049 113.424 161.449 112.984C160.857 112.544 160.109 112.324 159.205 112.324C158.277 112.324 157.509 112.552 156.901 113.008C156.293 113.464 155.841 114.084 155.545 114.868C155.257 115.652 155.113 116.532 155.113 117.508C155.113 118.492 155.261 119.38 155.557 120.172C155.861 120.956 156.313 121.576 156.913 122.032C157.513 122.488 158.265 122.716 159.169 122.716ZM163.237 124V114.244H163.045V106.72H164.821V124H163.237ZM170.036 129.76L172.544 122.956L172.58 124.972L166.904 111.04H168.776L173.432 122.692H172.664L176.96 111.04H178.76L171.8 129.76H170.036ZM192.705 124C191.977 124.152 191.257 124.212 190.545 124.18C189.841 124.148 189.209 123.996 188.649 123.724C188.097 123.452 187.677 123.028 187.389 122.452C187.157 121.972 187.029 121.488 187.005 121C186.989 120.504 186.981 119.94 186.981 119.308V107.44H188.733V119.236C188.733 119.78 188.737 120.236 188.745 120.604C188.761 120.964 188.845 121.284 188.997 121.564C189.285 122.1 189.741 122.42 190.365 122.524C190.997 122.628 191.777 122.604 192.705 122.452V124ZM184.209 112.552V111.04H192.705V112.552H184.209ZM200.201 124.36C198.913 124.36 197.813 124.068 196.901 123.484C195.989 122.9 195.289 122.092 194.801 121.06C194.313 120.028 194.069 118.844 194.069 117.508C194.069 116.148 194.317 114.956 194.813 113.932C195.309 112.908 196.013 112.112 196.925 111.544C197.845 110.968 198.937 110.68 200.201 110.68C201.497 110.68 202.601 110.972 203.513 111.556C204.433 112.132 205.133 112.936 205.613 113.968C206.101 114.992 206.345 116.172 206.345 117.508C206.345 118.868 206.101 120.064 205.613 121.096C205.125 122.12 204.421 122.92 203.501 123.496C202.581 124.072 201.481 124.36 200.201 124.36ZM200.201 122.668C201.641 122.668 202.713 122.192 203.417 121.24C204.121 120.28 204.473 119.036 204.473 117.508C204.473 115.94 204.117 114.692 203.405 113.764C202.701 112.836 201.633 112.372 200.201 112.372C199.233 112.372 198.433 112.592 197.801 113.032C197.177 113.464 196.709 114.068 196.397 114.844C196.093 115.612 195.941 116.5 195.941 117.508C195.941 119.068 196.301 120.32 197.021 121.264C197.741 122.2 198.801 122.668 200.201 122.668ZM218.945 130.12C218.281 130.12 217.625 130.02 216.977 129.82C216.337 129.628 215.745 129.32 215.201 128.896C214.657 128.48 214.201 127.936 213.833 127.264L215.429 126.376C215.789 127.096 216.293 127.612 216.941 127.924C217.597 128.244 218.265 128.404 218.945 128.404C219.881 128.404 220.637 128.228 221.213 127.876C221.797 127.532 222.221 127.02 222.485 126.34C222.749 125.66 222.877 124.812 222.869 123.796V120.34H223.073V111.04H224.645V123.82C224.645 124.188 224.633 124.54 224.609 124.876C224.593 125.22 224.557 125.556 224.501 125.884C224.349 126.852 224.033 127.648 223.553 128.272C223.081 128.896 222.457 129.36 221.681 129.664C220.913 129.968 220.001 130.12 218.945 130.12ZM218.825 124.36C217.617 124.36 216.585 124.06 215.729 123.46C214.873 122.852 214.217 122.032 213.761 121C213.305 119.968 213.077 118.804 213.077 117.508C213.077 116.22 213.301 115.06 213.749 114.028C214.205 112.996 214.857 112.18 215.705 111.58C216.553 110.98 217.569 110.68 218.753 110.68C219.969 110.68 220.993 110.976 221.825 111.568C222.657 112.16 223.285 112.972 223.709 114.004C224.141 115.028 224.357 116.196 224.357 117.508C224.357 118.796 224.145 119.96 223.721 121C223.297 122.032 222.673 122.852 221.849 123.46C221.025 124.06 220.017 124.36 218.825 124.36ZM219.005 122.716C219.925 122.716 220.685 122.492 221.285 122.044C221.885 121.596 222.333 120.98 222.629 120.196C222.925 119.404 223.073 118.508 223.073 117.508C223.073 116.492 222.925 115.596 222.629 114.82C222.333 114.036 221.885 113.424 221.285 112.984C220.693 112.544 219.945 112.324 219.041 112.324C218.113 112.324 217.345 112.552 216.737 113.008C216.129 113.464 215.677 114.084 215.381 114.868C215.093 115.652 214.949 116.532 214.949 117.508C214.949 118.492 215.097 119.38 215.393 120.172C215.697 120.956 216.149 121.576 216.749 122.032C217.349 122.488 218.101 122.716 219.005 122.716ZM233.484 124.36C232.22 124.36 231.124 124.08 230.196 123.52C229.276 122.96 228.56 122.172 228.048 121.156C227.536 120.14 227.28 118.948 227.28 117.58C227.28 116.164 227.532 114.94 228.036 113.908C228.54 112.876 229.248 112.08 230.16 111.52C231.08 110.96 232.164 110.68 233.412 110.68C234.692 110.68 235.784 110.976 236.688 111.568C237.592 112.152 238.276 112.992 238.74 114.088C239.204 115.184 239.416 116.492 239.376 118.012H237.576V117.388C237.544 115.708 237.18 114.44 236.484 113.584C235.796 112.728 234.788 112.3 233.46 112.3C232.068 112.3 231 112.752 230.256 113.656C229.52 114.56 229.152 115.848 229.152 117.52C229.152 119.152 229.52 120.42 230.256 121.324C231 122.22 232.052 122.668 233.412 122.668C234.34 122.668 235.148 122.456 235.836 122.032C236.532 121.6 237.08 120.98 237.48 120.172L239.124 120.808C238.612 121.936 237.856 122.812 236.856 123.436C235.864 124.052 234.74 124.36 233.484 124.36ZM228.528 118.012V116.536H238.428V118.012H228.528ZM249.095 124C248.367 124.152 247.647 124.212 246.935 124.18C246.231 124.148 245.599 123.996 245.039 123.724C244.487 123.452 244.067 123.028 243.779 122.452C243.547 121.972 243.419 121.488 243.395 121C243.379 120.504 243.371 119.94 243.371 119.308V107.44H245.123V119.236C245.123 119.78 245.127 120.236 245.135 120.604C245.151 120.964 245.235 121.284 245.387 121.564C245.675 122.1 246.131 122.42 246.755 122.524C247.387 122.628 248.167 122.604 249.095 122.452V124ZM240.599 112.552V111.04H249.095V112.552H240.599ZM261.289 124.348C259.769 124.348 258.517 124.02 257.533 123.364C256.557 122.708 255.957 121.796 255.733 120.628L257.533 120.328C257.725 121.064 258.161 121.652 258.841 122.092C259.529 122.524 260.377 122.74 261.385 122.74C262.369 122.74 263.145 122.536 263.713 122.128C264.281 121.712 264.565 121.148 264.565 120.436C264.565 120.036 264.473 119.712 264.289 119.464C264.113 119.208 263.749 118.972 263.197 118.756C262.645 118.54 261.821 118.284 260.725 117.988C259.549 117.668 258.629 117.348 257.965 117.028C257.301 116.708 256.829 116.34 256.549 115.924C256.269 115.5 256.129 114.984 256.129 114.376C256.129 113.64 256.337 112.996 256.753 112.444C257.169 111.884 257.745 111.452 258.481 111.148C259.217 110.836 260.073 110.68 261.049 110.68C262.025 110.68 262.897 110.84 263.665 111.16C264.441 111.472 265.065 111.912 265.537 112.48C266.009 113.048 266.289 113.708 266.377 114.46L264.577 114.784C264.457 114.024 264.077 113.424 263.437 112.984C262.805 112.536 262.001 112.304 261.025 112.288C260.105 112.264 259.357 112.44 258.781 112.816C258.205 113.184 257.917 113.676 257.917 114.292C257.917 114.636 258.021 114.932 258.229 115.18C258.437 115.42 258.813 115.648 259.357 115.864C259.909 116.08 260.693 116.316 261.709 116.572C262.901 116.876 263.837 117.196 264.517 117.532C265.197 117.868 265.681 118.264 265.969 118.72C266.257 119.176 266.401 119.74 266.401 120.412C266.401 121.636 265.945 122.6 265.033 123.304C264.129 124 262.881 124.348 261.289 124.348ZM276.119 124C275.391 124.152 274.671 124.212 273.959 124.18C273.255 124.148 272.623 123.996 272.063 123.724C271.511 123.452 271.091 123.028 270.803 122.452C270.571 121.972 270.443 121.488 270.419 121C270.403 120.504 270.395 119.94 270.395 119.308V107.44H272.147V119.236C272.147 119.78 272.151 120.236 272.159 120.604C272.175 120.964 272.259 121.284 272.411 121.564C272.699 122.1 273.155 122.42 273.779 122.524C274.411 122.628 275.191 122.604 276.119 122.452V124ZM267.623 112.552V111.04H276.119V112.552H267.623ZM282.38 124.36C281.404 124.36 280.584 124.184 279.92 123.832C279.264 123.48 278.772 123.012 278.444 122.428C278.116 121.844 277.952 121.208 277.952 120.52C277.952 119.816 278.092 119.216 278.372 118.72C278.66 118.216 279.048 117.804 279.536 117.484C280.032 117.164 280.604 116.92 281.252 116.752C281.908 116.592 282.632 116.452 283.424 116.332C284.224 116.204 285.004 116.096 285.764 116.008C286.532 115.912 287.204 115.82 287.78 115.732L287.156 116.116C287.18 114.836 286.932 113.888 286.412 113.272C285.892 112.656 284.988 112.348 283.7 112.348C282.812 112.348 282.06 112.548 281.444 112.948C280.836 113.348 280.408 113.98 280.16 114.844L278.444 114.34C278.74 113.18 279.336 112.28 280.232 111.64C281.128 111 282.292 110.68 283.724 110.68C284.908 110.68 285.912 110.904 286.736 111.352C287.568 111.792 288.156 112.432 288.5 113.272C288.66 113.648 288.764 114.068 288.812 114.532C288.86 114.996 288.884 115.468 288.884 115.948V124H287.312V120.748L287.768 120.94C287.328 122.052 286.644 122.9 285.716 123.484C284.788 124.068 283.676 124.36 282.38 124.36ZM282.584 122.836C283.408 122.836 284.128 122.688 284.744 122.392C285.36 122.096 285.856 121.692 286.232 121.18C286.608 120.66 286.852 120.076 286.964 119.428C287.06 119.012 287.112 118.556 287.12 118.06C287.128 117.556 287.132 117.18 287.132 116.932L287.804 117.28C287.204 117.36 286.552 117.44 285.848 117.52C285.152 117.6 284.464 117.692 283.784 117.796C283.112 117.9 282.504 118.024 281.96 118.168C281.592 118.272 281.236 118.42 280.892 118.612C280.548 118.796 280.264 119.044 280.04 119.356C279.824 119.668 279.716 120.056 279.716 120.52C279.716 120.896 279.808 121.26 279.992 121.612C280.184 121.964 280.488 122.256 280.904 122.488C281.328 122.72 281.888 122.836 282.584 122.836ZM292.008 124V111.04H293.592V114.16L293.28 113.752C293.424 113.368 293.612 113.016 293.844 112.696C294.076 112.368 294.328 112.1 294.6 111.892C294.936 111.596 295.328 111.372 295.776 111.22C296.224 111.06 296.676 110.968 297.132 110.944C297.588 110.912 298.004 110.944 298.38 111.04V112.696C297.908 112.576 297.392 112.548 296.832 112.612C296.272 112.676 295.756 112.9 295.284 113.284C294.852 113.62 294.528 114.024 294.312 114.496C294.096 114.96 293.952 115.456 293.88 115.984C293.808 116.504 293.772 117.02 293.772 117.532V124H292.008ZM307.713 124C306.985 124.152 306.265 124.212 305.553 124.18C304.849 124.148 304.217 123.996 303.657 123.724C303.105 123.452 302.685 123.028 302.397 122.452C302.165 121.972 302.037 121.488 302.013 121C301.997 120.504 301.989 119.94 301.989 119.308V107.44H303.741V119.236C303.741 119.78 303.745 120.236 303.753 120.604C303.769 120.964 303.853 121.284 304.005 121.564C304.293 122.1 304.749 122.42 305.373 122.524C306.005 122.628 306.785 122.604 307.713 122.452V124ZM299.217 112.552V111.04H307.713V112.552H299.217ZM315.281 124.36C314.017 124.36 312.921 124.08 311.993 123.52C311.073 122.96 310.357 122.172 309.845 121.156C309.333 120.14 309.077 118.948 309.077 117.58C309.077 116.164 309.329 114.94 309.833 113.908C310.337 112.876 311.045 112.08 311.957 111.52C312.877 110.96 313.961 110.68 315.209 110.68C316.489 110.68 317.581 110.976 318.485 111.568C319.389 112.152 320.073 112.992 320.537 114.088C321.001 115.184 321.213 116.492 321.173 118.012H319.373V117.388C319.341 115.708 318.977 114.44 318.281 113.584C317.593 112.728 316.585 112.3 315.257 112.3C313.865 112.3 312.797 112.752 312.053 113.656C311.317 114.56 310.949 115.848 310.949 117.52C310.949 119.152 311.317 120.42 312.053 121.324C312.797 122.22 313.849 122.668 315.209 122.668C316.137 122.668 316.945 122.456 317.633 122.032C318.329 121.6 318.877 120.98 319.277 120.172L320.921 120.808C320.409 121.936 319.653 122.812 318.653 123.436C317.661 124.052 316.537 124.36 315.281 124.36ZM310.325 118.012V116.536H320.225V118.012H310.325ZM328.864 124.36C327.656 124.36 326.624 124.06 325.768 123.46C324.912 122.852 324.256 122.032 323.8 121C323.344 119.968 323.116 118.804 323.116 117.508C323.116 116.22 323.34 115.06 323.788 114.028C324.244 112.996 324.896 112.18 325.744 111.58C326.592 110.98 327.608 110.68 328.792 110.68C330.008 110.68 331.032 110.976 331.864 111.568C332.696 112.16 333.324 112.972 333.748 114.004C334.18 115.028 334.396 116.196 334.396 117.508C334.396 118.796 334.184 119.96 333.76 121C333.336 122.032 332.712 122.852 331.888 123.46C331.064 124.06 330.056 124.36 328.864 124.36ZM329.044 122.716C329.964 122.716 330.724 122.492 331.324 122.044C331.924 121.596 332.372 120.98 332.668 120.196C332.964 119.404 333.112 118.508 333.112 117.508C333.112 116.492 332.964 115.596 332.668 114.82C332.372 114.036 331.924 113.424 331.324 112.984C330.732 112.544 329.984 112.324 329.08 112.324C328.152 112.324 327.384 112.552 326.776 113.008C326.168 113.464 325.716 114.084 325.42 114.868C325.132 115.652 324.988 116.532 324.988 117.508C324.988 118.492 325.136 119.38 325.432 120.172C325.736 120.956 326.188 121.576 326.788 122.032C327.388 122.488 328.14 122.716 329.044 122.716ZM333.112 124V114.244H332.92V106.72H334.696V124H333.112ZM341.447 119.284C341.447 118.66 341.475 118.112 341.531 117.64C341.595 117.16 341.755 116.68 342.011 116.2C342.251 115.744 342.547 115.368 342.899 115.072C343.251 114.768 343.619 114.484 344.003 114.22C344.387 113.948 344.751 113.628 345.095 113.26C345.407 112.9 345.615 112.536 345.719 112.168C345.823 111.8 345.875 111.412 345.875 111.004C345.875 110.596 345.823 110.232 345.719 109.912C345.623 109.592 345.471 109.316 345.263 109.084C344.943 108.692 344.551 108.424 344.087 108.28C343.623 108.136 343.139 108.064 342.635 108.064C342.139 108.064 341.675 108.136 341.243 108.28C340.819 108.416 340.467 108.628 340.187 108.916C339.915 109.172 339.715 109.48 339.587 109.84C339.467 110.2 339.407 110.58 339.407 110.98H337.583C337.615 110.348 337.751 109.732 337.991 109.132C338.239 108.524 338.599 108.016 339.071 107.608C339.543 107.176 340.091 106.864 340.715 106.672C341.347 106.472 341.983 106.372 342.623 106.372C343.407 106.372 344.151 106.492 344.855 106.732C345.559 106.964 346.151 107.356 346.631 107.908C347.015 108.316 347.295 108.784 347.471 109.312C347.655 109.832 347.747 110.388 347.747 110.98C347.747 111.644 347.623 112.268 347.375 112.852C347.127 113.436 346.779 113.956 346.331 114.412C346.059 114.708 345.751 114.984 345.407 115.24C345.063 115.488 344.731 115.748 344.411 116.02C344.099 116.284 343.859 116.572 343.691 116.884C343.483 117.268 343.367 117.632 343.343 117.976C343.327 118.32 343.319 118.756 343.319 119.284H341.447ZM341.459 124V121.648H343.319V124H341.459Z" fill="#565973"/>
<path d="M119.48 191V167.28H110.4V162.2H134V167.28H124.92V191H119.48ZM140.402 191.6C138.855 191.6 137.542 191.307 136.462 190.72C135.395 190.12 134.582 189.327 134.022 188.34C133.475 187.34 133.202 186.24 133.202 185.04C133.202 184.04 133.355 183.127 133.662 182.3C133.968 181.473 134.462 180.747 135.142 180.12C135.835 179.48 136.762 178.947 137.922 178.52C138.722 178.227 139.675 177.967 140.782 177.74C141.888 177.513 143.142 177.3 144.542 177.1C145.942 176.887 147.482 176.653 149.162 176.4L147.202 177.48C147.202 176.2 146.895 175.26 146.282 174.66C145.668 174.06 144.642 173.76 143.202 173.76C142.402 173.76 141.568 173.953 140.702 174.34C139.835 174.727 139.228 175.413 138.882 176.4L133.962 174.84C134.508 173.053 135.535 171.6 137.042 170.48C138.548 169.36 140.602 168.8 143.202 168.8C145.108 168.8 146.802 169.093 148.282 169.68C149.762 170.267 150.882 171.28 151.642 172.72C152.068 173.52 152.322 174.32 152.402 175.12C152.482 175.92 152.522 176.813 152.522 177.8V191H147.762V186.56L148.442 187.48C147.388 188.933 146.248 189.987 145.022 190.64C143.808 191.28 142.268 191.6 140.402 191.6ZM141.562 187.32C142.562 187.32 143.402 187.147 144.082 186.8C144.775 186.44 145.322 186.033 145.722 185.58C146.135 185.127 146.415 184.747 146.562 184.44C146.842 183.853 147.002 183.173 147.042 182.4C147.095 181.613 147.122 180.96 147.122 180.44L148.722 180.84C147.108 181.107 145.802 181.333 144.802 181.52C143.802 181.693 142.995 181.853 142.382 182C141.768 182.147 141.228 182.307 140.762 182.48C140.228 182.693 139.795 182.927 139.462 183.18C139.142 183.42 138.902 183.687 138.742 183.98C138.595 184.273 138.522 184.6 138.522 184.96C138.522 185.453 138.642 185.88 138.882 186.24C139.135 186.587 139.488 186.853 139.942 187.04C140.395 187.227 140.935 187.32 141.562 187.32ZM157.682 191L157.722 162.2H163.242V179.8L170.562 169.4H177.282L169.482 180.2L177.802 191H170.722L163.242 180.6V191H157.682ZM189.442 191.6C187.228 191.6 185.275 191.127 183.582 190.18C181.902 189.22 180.582 187.907 179.622 186.24C178.675 184.56 178.202 182.64 178.202 180.48C178.202 178.12 178.668 176.067 179.602 174.32C180.535 172.573 181.822 171.22 183.462 170.26C185.102 169.287 186.988 168.8 189.122 168.8C191.388 168.8 193.315 169.333 194.902 170.4C196.488 171.467 197.662 172.967 198.422 174.9C199.182 176.833 199.448 179.107 199.222 181.72H193.842V179.72C193.842 177.52 193.488 175.94 192.782 174.98C192.088 174.007 190.948 173.52 189.362 173.52C187.508 173.52 186.142 174.087 185.262 175.22C184.395 176.34 183.962 178 183.962 180.2C183.962 182.213 184.395 183.773 185.262 184.88C186.142 185.973 187.428 186.52 189.122 186.52C190.188 186.52 191.102 186.287 191.862 185.82C192.622 185.353 193.202 184.68 193.602 183.8L199.042 185.36C198.228 187.333 196.942 188.867 195.182 189.96C193.435 191.053 191.522 191.6 189.442 191.6ZM182.282 181.72V177.68H196.602V181.72H182.282ZM218.785 191V179.28L208.945 162.2H215.305L221.545 173.04L227.785 162.2H234.145L224.305 179.28V191H218.785ZM243.458 191.6C241.284 191.6 239.378 191.113 237.738 190.14C236.098 189.167 234.818 187.827 233.898 186.12C232.991 184.4 232.538 182.427 232.538 180.2C232.538 177.947 233.004 175.967 233.938 174.26C234.871 172.54 236.158 171.2 237.798 170.24C239.438 169.28 241.324 168.8 243.458 168.8C245.631 168.8 247.538 169.287 249.178 170.26C250.831 171.233 252.118 172.58 253.038 174.3C253.958 176.007 254.418 177.973 254.418 180.2C254.418 182.44 253.951 184.42 253.018 186.14C252.098 187.847 250.811 189.187 249.158 190.16C247.518 191.12 245.618 191.6 243.458 191.6ZM243.458 186.52C245.204 186.52 246.504 185.933 247.358 184.76C248.224 183.573 248.658 182.053 248.658 180.2C248.658 178.28 248.218 176.747 247.338 175.6C246.471 174.453 245.178 173.88 243.458 173.88C242.271 173.88 241.298 174.147 240.538 174.68C239.778 175.213 239.211 175.953 238.838 176.9C238.478 177.847 238.298 178.947 238.298 180.2C238.298 182.133 238.731 183.673 239.598 184.82C240.478 185.953 241.764 186.52 243.458 186.52ZM266.856 191.64C265.162 191.64 263.782 191.353 262.716 190.78C261.649 190.207 260.816 189.48 260.216 188.6C259.629 187.72 259.209 186.807 258.956 185.86C258.702 184.9 258.549 184.027 258.496 183.24C258.442 182.453 258.416 181.88 258.416 181.52V169.4H263.936V179.6C263.936 180.093 263.962 180.727 264.016 181.5C264.069 182.26 264.236 183.027 264.516 183.8C264.796 184.573 265.249 185.22 265.876 185.74C266.516 186.26 267.416 186.52 268.576 186.52C269.042 186.52 269.542 186.447 270.076 186.3C270.609 186.153 271.109 185.873 271.576 185.46C272.042 185.033 272.422 184.413 272.716 183.6C273.022 182.773 273.176 181.693 273.176 180.36L276.296 181.84C276.296 183.547 275.949 185.147 275.256 186.64C274.562 188.133 273.516 189.34 272.116 190.26C270.729 191.18 268.976 191.64 266.856 191.64ZM273.856 191V183.84H273.176V169.4H278.656V191H273.856ZM284.245 191V169.4H289.045V174.68L288.525 174C288.805 173.253 289.179 172.573 289.645 171.96C290.112 171.347 290.685 170.84 291.365 170.44C291.885 170.12 292.452 169.873 293.065 169.7C293.679 169.513 294.312 169.4 294.965 169.36C295.619 169.307 296.272 169.32 296.925 169.4V174.48C296.325 174.293 295.625 174.233 294.825 174.3C294.039 174.353 293.325 174.533 292.685 174.84C292.045 175.133 291.505 175.527 291.065 176.02C290.625 176.5 290.292 177.073 290.065 177.74C289.839 178.393 289.725 179.133 289.725 179.96V191H284.245ZM435.994 191C434.501 191.28 433.034 191.4 431.594 191.36C430.168 191.333 428.888 191.087 427.754 190.62C426.634 190.14 425.781 189.373 425.194 188.32C424.661 187.333 424.381 186.333 424.354 185.32C424.328 184.293 424.314 183.133 424.314 181.84V163.4H429.754V181.52C429.754 182.36 429.761 183.12 429.774 183.8C429.801 184.467 429.941 185 430.194 185.4C430.674 186.16 431.441 186.573 432.494 186.64C433.548 186.707 434.714 186.653 435.994 186.48V191ZM420.634 173.6V169.4H435.994V173.6H420.634ZM449.356 191.6C447.183 191.6 445.276 191.113 443.636 190.14C441.996 189.167 440.716 187.827 439.796 186.12C438.889 184.4 438.436 182.427 438.436 180.2C438.436 177.947 438.903 175.967 439.836 174.26C440.769 172.54 442.056 171.2 443.696 170.24C445.336 169.28 447.223 168.8 449.356 168.8C451.529 168.8 453.436 169.287 455.076 170.26C456.729 171.233 458.016 172.58 458.936 174.3C459.856 176.007 460.316 177.973 460.316 180.2C460.316 182.44 459.849 184.42 458.916 186.14C457.996 187.847 456.709 189.187 455.056 190.16C453.416 191.12 451.516 191.6 449.356 191.6ZM449.356 186.52C451.103 186.52 452.403 185.933 453.256 184.76C454.123 183.573 454.556 182.053 454.556 180.2C454.556 178.28 454.116 176.747 453.236 175.6C452.369 174.453 451.076 173.88 449.356 173.88C448.169 173.88 447.196 174.147 446.436 174.68C445.676 175.213 445.109 175.953 444.736 176.9C444.376 177.847 444.196 178.947 444.196 180.2C444.196 182.133 444.629 183.673 445.496 184.82C446.376 185.953 447.663 186.52 449.356 186.52ZM485.682 191C484.189 191.28 482.722 191.4 481.282 191.36C479.855 191.333 478.575 191.087 477.442 190.62C476.322 190.14 475.469 189.373 474.882 188.32C474.349 187.333 474.069 186.333 474.042 185.32C474.015 184.293 474.002 183.133 474.002 181.84V163.4H479.442V181.52C479.442 182.36 479.449 183.12 479.462 183.8C479.489 184.467 479.629 185 479.882 185.4C480.362 186.16 481.129 186.573 482.182 186.64C483.235 186.707 484.402 186.653 485.682 186.48V191ZM470.322 173.6V169.4H485.682V173.6H470.322ZM505.215 191V180.8C505.215 180.307 505.189 179.68 505.135 178.92C505.082 178.147 504.915 177.373 504.635 176.6C504.355 175.827 503.895 175.18 503.255 174.66C502.629 174.14 501.735 173.88 500.575 173.88C500.109 173.88 499.609 173.953 499.075 174.1C498.542 174.247 498.042 174.533 497.575 174.96C497.109 175.373 496.722 175.987 496.415 176.8C496.122 177.613 495.975 178.693 495.975 180.04L492.855 178.56C492.855 176.853 493.202 175.253 493.895 173.76C494.589 172.267 495.629 171.06 497.015 170.14C498.415 169.22 500.175 168.76 502.295 168.76C503.989 168.76 505.369 169.047 506.435 169.62C507.502 170.193 508.329 170.92 508.915 171.8C509.515 172.68 509.942 173.6 510.195 174.56C510.449 175.507 510.602 176.373 510.655 177.16C510.709 177.947 510.735 178.52 510.735 178.88V191H505.215ZM490.455 191V162.2H495.295V177H495.975V191H490.455ZM525.965 191.6C523.752 191.6 521.798 191.127 520.105 190.18C518.425 189.22 517.105 187.907 516.145 186.24C515.198 184.56 514.725 182.64 514.725 180.48C514.725 178.12 515.192 176.067 516.125 174.32C517.058 172.573 518.345 171.22 519.985 170.26C521.625 169.287 523.512 168.8 525.645 168.8C527.912 168.8 529.838 169.333 531.425 170.4C533.012 171.467 534.185 172.967 534.945 174.9C535.705 176.833 535.972 179.107 535.745 181.72H530.365V179.72C530.365 177.52 530.012 175.94 529.305 174.98C528.612 174.007 527.472 173.52 525.885 173.52C524.032 173.52 522.665 174.087 521.785 175.22C520.918 176.34 520.485 178 520.485 180.2C520.485 182.213 520.918 183.773 521.785 184.88C522.665 185.973 523.952 186.52 525.645 186.52C526.712 186.52 527.625 186.287 528.385 185.82C529.145 185.353 529.725 184.68 530.125 183.8L535.565 185.36C534.752 187.333 533.465 188.867 531.705 189.96C529.958 191.053 528.045 191.6 525.965 191.6ZM518.805 181.72V177.68H533.125V181.72H518.805ZM112.8 243V214.2H118.32L130.84 233.4V214.2H136.36V243H130.84L118.32 223.8V243H112.8ZM151.981 243.6C149.767 243.6 147.814 243.127 146.121 242.18C144.441 241.22 143.121 239.907 142.161 238.24C141.214 236.56 140.741 234.64 140.741 232.48C140.741 230.12 141.207 228.067 142.141 226.32C143.074 224.573 144.361 223.22 146.001 222.26C147.641 221.287 149.527 220.8 151.661 220.8C153.927 220.8 155.854 221.333 157.441 222.4C159.027 223.467 160.201 224.967 160.961 226.9C161.721 228.833 161.987 231.107 161.761 233.72H156.381V231.72C156.381 229.52 156.027 227.94 155.321 226.98C154.627 226.007 153.487 225.52 151.901 225.52C150.047 225.52 148.681 226.087 147.801 227.22C146.934 228.34 146.501 230 146.501 232.2C146.501 234.213 146.934 235.773 147.801 236.88C148.681 237.973 149.967 238.52 151.661 238.52C152.727 238.52 153.641 238.287 154.401 237.82C155.161 237.353 155.741 236.68 156.141 235.8L161.581 237.36C160.767 239.333 159.481 240.867 157.721 241.96C155.974 243.053 154.061 243.6 151.981 243.6ZM144.821 233.72V229.68H159.141V233.72H144.821ZM163.095 243L170.815 232.08L163.255 221.4H169.655L173.975 227.8L178.215 221.4H184.615L177.055 232.08L184.815 243H178.415L173.975 236.36L169.495 243H163.095ZM200.994 243C199.501 243.28 198.034 243.4 196.594 243.36C195.168 243.333 193.888 243.087 192.754 242.62C191.634 242.14 190.781 241.373 190.194 240.32C189.661 239.333 189.381 238.333 189.354 237.32C189.328 236.293 189.314 235.133 189.314 233.84V215.4H194.754V233.52C194.754 234.36 194.761 235.12 194.774 235.8C194.801 236.467 194.941 237 195.194 237.4C195.674 238.16 196.441 238.573 197.494 238.64C198.548 238.707 199.714 238.653 200.994 238.48V243ZM185.634 225.6V221.4H200.994V225.6H185.634ZM214.216 243V214.2H219.656V237.92H232.056V243H214.216ZM245.496 243.6C243.283 243.6 241.33 243.127 239.636 242.18C237.956 241.22 236.636 239.907 235.676 238.24C234.73 236.56 234.256 234.64 234.256 232.48C234.256 230.12 234.723 228.067 235.656 226.32C236.59 224.573 237.876 223.22 239.516 222.26C241.156 221.287 243.043 220.8 245.176 220.8C247.443 220.8 249.37 221.333 250.956 222.4C252.543 223.467 253.716 224.967 254.476 226.9C255.236 228.833 255.503 231.107 255.276 233.72H249.896V231.72C249.896 229.52 249.543 227.94 248.836 226.98C248.143 226.007 247.003 225.52 245.416 225.52C243.563 225.52 242.196 226.087 241.316 227.22C240.45 228.34 240.016 230 240.016 232.2C240.016 234.213 240.45 235.773 241.316 236.88C242.196 237.973 243.483 238.52 245.176 238.52C246.243 238.52 247.156 238.287 247.916 237.82C248.676 237.353 249.256 236.68 249.656 235.8L255.096 237.36C254.283 239.333 252.996 240.867 251.236 241.96C249.49 243.053 247.576 243.6 245.496 243.6ZM238.336 233.72V229.68H252.656V233.72H238.336ZM264.851 243L257.011 221.4H262.451L267.571 236.36L272.691 221.4H278.131L270.291 243H264.851ZM291.004 243.6C288.791 243.6 286.837 243.127 285.144 242.18C283.464 241.22 282.144 239.907 281.184 238.24C280.237 236.56 279.764 234.64 279.764 232.48C279.764 230.12 280.231 228.067 281.164 226.32C282.097 224.573 283.384 223.22 285.024 222.26C286.664 221.287 288.551 220.8 290.684 220.8C292.951 220.8 294.877 221.333 296.464 222.4C298.051 223.467 299.224 224.967 299.984 226.9C300.744 228.833 301.011 231.107 300.784 233.72H295.404V231.72C295.404 229.52 295.051 227.94 294.344 226.98C293.651 226.007 292.511 225.52 290.924 225.52C289.071 225.52 287.704 226.087 286.824 227.22C285.957 228.34 285.524 230 285.524 232.2C285.524 234.213 285.957 235.773 286.824 236.88C287.704 237.973 288.991 238.52 290.684 238.52C291.751 238.52 292.664 238.287 293.424 237.82C294.184 237.353 294.764 236.68 295.164 235.8L300.604 237.36C299.791 239.333 298.504 240.867 296.744 241.96C294.997 243.053 293.084 243.6 291.004 243.6ZM283.844 233.72V229.68H298.164V233.72H283.844ZM305.7 243V213.6H311.14V243H305.7Z" fill="#0B0F19"/>
<path d="M319.618 191.6C317.484 191.6 315.558 191.227 313.838 190.48C312.131 189.72 310.724 188.64 309.618 187.24C308.524 185.827 307.831 184.147 307.538 182.2L313.218 181.36C313.618 183.013 314.444 184.287 315.698 185.18C316.951 186.073 318.378 186.52 319.978 186.52C320.871 186.52 321.738 186.38 322.578 186.1C323.418 185.82 324.104 185.407 324.638 184.86C325.184 184.313 325.458 183.64 325.458 182.84C325.458 182.547 325.411 182.267 325.318 182C325.238 181.72 325.098 181.46 324.898 181.22C324.698 180.98 324.411 180.753 324.038 180.54C323.678 180.327 323.218 180.133 322.658 179.96L315.178 177.76C314.618 177.6 313.964 177.373 313.218 177.08C312.484 176.787 311.771 176.367 311.077 175.82C310.384 175.273 309.804 174.553 309.338 173.66C308.884 172.753 308.658 171.613 308.658 170.24C308.658 168.307 309.144 166.7 310.118 165.42C311.091 164.14 312.391 163.187 314.018 162.56C315.644 161.933 317.444 161.627 319.418 161.64C321.404 161.667 323.178 162.007 324.738 162.66C326.298 163.313 327.604 164.267 328.658 165.52C329.711 166.76 330.471 168.28 330.938 170.08L325.058 171.08C324.844 170.147 324.451 169.36 323.878 168.72C323.304 168.08 322.618 167.593 321.818 167.26C321.031 166.927 320.204 166.747 319.338 166.72C318.484 166.693 317.678 166.813 316.918 167.08C316.171 167.333 315.558 167.707 315.078 168.2C314.611 168.693 314.378 169.28 314.378 169.96C314.378 170.587 314.571 171.1 314.958 171.5C315.344 171.887 315.831 172.2 316.418 172.44C317.004 172.68 317.604 172.88 318.218 173.04L323.218 174.4C323.964 174.6 324.791 174.867 325.698 175.2C326.604 175.52 327.471 175.973 328.298 176.56C329.138 177.133 329.824 177.893 330.358 178.84C330.904 179.787 331.178 180.987 331.178 182.44C331.178 183.987 330.851 185.34 330.198 186.5C329.558 187.647 328.691 188.6 327.598 189.36C326.504 190.107 325.264 190.667 323.878 191.04C322.504 191.413 321.084 191.6 319.618 191.6ZM335.533 191L335.573 162.2H341.093V179.8L348.413 169.4H355.133L347.333 180.2L355.653 191H348.573L341.093 180.6V191H335.533ZM358.044 166.4V161.6H363.484V166.4H358.044ZM358.044 191V169.4H363.484V191H358.044ZM369.88 191V161.6H375.32V191H369.88ZM381.716 191V161.6H387.156V191H381.716ZM401.592 191.6C398.872 191.6 396.672 190.987 394.992 189.76C393.325 188.52 392.312 186.773 391.952 184.52L397.512 183.68C397.738 184.693 398.238 185.487 399.012 186.06C399.798 186.633 400.792 186.92 401.992 186.92C402.978 186.92 403.738 186.733 404.272 186.36C404.805 185.973 405.072 185.44 405.072 184.76C405.072 184.333 404.965 183.993 404.752 183.74C404.538 183.473 404.058 183.213 403.312 182.96C402.578 182.707 401.432 182.373 399.872 181.96C398.112 181.507 396.705 181 395.652 180.44C394.598 179.88 393.838 179.213 393.372 178.44C392.905 177.653 392.672 176.707 392.672 175.6C392.672 174.213 393.025 173.013 393.732 172C394.438 170.973 395.432 170.187 396.712 169.64C398.005 169.08 399.525 168.8 401.272 168.8C402.965 168.8 404.465 169.06 405.772 169.58C407.078 170.1 408.132 170.84 408.932 171.8C409.745 172.76 410.245 173.893 410.432 175.2L404.872 176.2C404.778 175.4 404.432 174.767 403.832 174.3C403.232 173.833 402.418 173.56 401.392 173.48C400.392 173.413 399.585 173.547 398.972 173.88C398.372 174.213 398.072 174.693 398.072 175.32C398.072 175.693 398.198 176.007 398.452 176.26C398.718 176.513 399.258 176.773 400.072 177.04C400.898 177.307 402.152 177.653 403.832 178.08C405.472 178.507 406.785 179.007 407.772 179.58C408.772 180.14 409.498 180.82 409.952 181.62C410.405 182.407 410.632 183.36 410.632 184.48C410.632 186.693 409.832 188.433 408.232 189.7C406.632 190.967 404.418 191.6 401.592 191.6Z" fill="#6366F1"/>
<defs>
<linearGradient id="paint0_linear_20005153_3934" x1="917.297" y1="158.698" x2="1041.64" y2="158.698" gradientUnits="userSpaceOnUse">
<stop stop-color="#6366F1"/>
<stop offset="0.5" stop-color="#8B5CF6"/>
<stop offset="1" stop-color="#D946EF"/>
</linearGradient>
</defs>
</svg>
