<svg width="16" height="16" viewBox="0 0 16 16" fill="none" xmlns="http://www.w3.org/2000/svg">
<path opacity="0.5" d="M4.34399 9.54859L3.35066 13.8499C3.28932 14.1159 3.39599 14.3926 3.62132 14.5479C3.73532 14.6266 3.86732 14.6666 3.99999 14.6666C4.12866 14.6666 4.25799 14.6293 4.36999 14.5546L7.99999 12.1346L11.63 14.5546C11.862 14.7093 12.1667 14.7033 12.3933 14.5386C12.6187 14.3739 12.718 14.0853 12.6413 13.8173L11.422 9.55059L14.446 6.82925C14.644 6.65059 14.7167 6.37192 14.6313 6.11992C14.5453 5.86792 14.318 5.69059 14.0527 5.66925L10.252 5.36659L8.60732 1.72592C8.49999 1.48659 8.26199 1.33325 7.99999 1.33325C7.73799 1.33325 7.49999 1.48659 7.39266 1.72592L5.74799 5.36659L1.94732 5.66859C1.68599 5.68925 1.46132 5.86059 1.37332 6.10659C1.28399 6.35259 1.34799 6.62792 1.53466 6.81059L4.34399 9.54859ZM6.24599 6.66459C6.48799 6.64525 6.70132 6.49592 6.80066 6.27392L7.99999 3.61992L9.19932 6.27392C9.29866 6.49592 9.51199 6.64525 9.75399 6.66459L12.402 6.87459L10.2213 8.83725C10.032 9.00792 9.95666 9.27059 10.026 9.51592L10.8613 12.4393L8.37066 10.7786C8.14666 10.6286 7.85532 10.6286 7.63132 10.7786L5.02866 12.5139L5.72866 9.48325C5.78066 9.25659 5.71132 9.01859 5.54466 8.85659L3.51932 6.88192L6.24599 6.66459Z" fill="white"/>
</svg>
