<svg width="16" height="16" viewBox="0 0 16 16" fill="none" xmlns="http://www.w3.org/2000/svg">
<path d="M14.6313 6.11925C14.5453 5.86725 14.3179 5.68925 14.0526 5.66859L10.2519 5.36659L8.60728 1.72592C8.49995 1.48659 8.26195 1.33325 7.99995 1.33325C7.73795 1.33325 7.49995 1.48659 7.39261 1.72525L5.74795 5.36659L1.94728 5.66859C1.68661 5.68925 1.46195 5.86059 1.37328 6.10659C1.28461 6.35259 1.34728 6.62792 1.53461 6.81059L4.34328 9.54859L3.34995 13.8499C3.28861 14.1159 3.39595 14.3926 3.62061 14.5479C3.73528 14.6266 3.86728 14.6666 3.99995 14.6666C4.12861 14.6666 4.25795 14.6293 4.36995 14.5546L7.99995 12.1346L11.6299 14.5546C11.8619 14.7093 12.1666 14.7033 12.3933 14.5386C12.6186 14.3739 12.7179 14.0853 12.6413 13.8173L11.4219 9.55059L14.4459 6.82925C14.6439 6.65059 14.7166 6.37192 14.6313 6.11925Z" fill="#FFBA08"/>
</svg>
