<svg width="20" height="20" viewBox="0 0 20 20" fill="none" xmlns="http://www.w3.org/2000/svg">
<path d="M16.6665 3.33325H3.33317C2.414 3.33325 1.6665 4.08075 1.6665 4.99992V14.9999C1.6665 15.9191 2.414 16.6666 3.33317 16.6666H16.6665C17.5857 16.6666 18.3332 15.9191 18.3332 14.9999V4.99992C18.3332 4.08075 17.5857 3.33325 16.6665 3.33325ZM16.6665 4.99992V5.42575L9.99984 10.6116L3.33317 5.42659V4.99992H16.6665ZM3.33317 14.9999V7.53658L9.48817 12.3241C9.63817 12.4416 9.819 12.4999 9.99984 12.4999C10.1807 12.4999 10.3615 12.4416 10.5115 12.3241L16.6665 7.53658L16.6682 14.9999H3.33317Z" fill="#B4B7C9"/>
</svg>
